<?xml version="1.0" encoding="UTF-8"?>
<svg id="Capa_1" xmlns="http://www.w3.org/2000/svg" version="1.1" viewBox="0 0 180 180">
  <!-- Generator: Adobe Illustrator 29.5.0, SVG Export Plug-In . SVG Version: 2.1.0 Build 137)  -->
  <defs>
    <style>
      .st0 {
        fill: #758086;
      }

      .st1 {
        fill: #5a6267;
      }

      .st2 {
        stroke: #b6a744;
      }

      .st2, .st3, .st4, .st5, .st6, .st7, .st8, .st9, .st10, .st11, .st12 {
        fill: none;
        stroke-width: 2px;
      }

      .st3 {
        stroke: #0a0c12;
      }

      .st13 {
        fill: #fff;
      }

      .st4 {
        stroke: #444b55;
      }

      .st5 {
        stroke: #898b91;
      }

      .st6 {
        stroke: #3d81a8;
      }

      .st7 {
        stroke: #a99934;
      }

      .st14 {
        fill: #1081c4;
      }

      .st15 {
        fill: #101421;
      }

      .st16 {
        fill: #f8d000;
      }

      .st17 {
        fill: #010101;
      }

      .st8 {
        stroke: #0a4c76;
      }

      .st9 {
        stroke: #7ca865;
      }

      .st10 {
        stroke: #687177;
      }

      .st11 {
        stroke: #2f7298;
      }

      .st12 {
        stroke: #84731a;
      }
    </style>
  </defs>
  <g>
    <path class="st3" d="M30.4,51.2c.2,8.8-2.8,18.3-6.7,25.7-2.2,4.2-5.1,9.1-7.3,13.9-1.6,3.5-2.8,7.3-3.1,11.1-.3,3.3-.4,6.7-.4,10,0,.2,0,.5,0,.9.1.7.1,1.6.2,2.2.8,6.5,3.6,13.4,7.9,18.4,6.4,7.5,14.5,13.4,23.5,17,2.5,1,5.3,2,8.5,2.9,8.1,2.4,16,5.6,23,10.3,4.2,2.8,8.3,5.8,12.1,9.1,0,0,.1,0,.2,0,2.5-2.3,5.1-4.4,8-6.2,1.8-1.1,3.1-1.9,3.8-2.3,6.3-3.3,12.6-6.4,19.1-9.3,3.7-1.7,7.5-3.2,11.3-4.7,14.8-5.7,29.6-14.4,35.1-30.2.9-2.5,1.2-5.1,1.3-7.7.1-3.3,0-6.7-.2-10-.7-8.1-5.8-15.7-8.6-22.7-2.6-6.7-4.8-13.2-6.5-20.3-.4-1.7-.7-3.4-1-5.1-.6-3.7-.3-7,1.2-10.4,0,0,.4-.9,1.2-2.5.9-1.9,1.8-3.8,2.7-5.5,1.2-2.1,2.5-4,3.9-6,0,0,0-.1,0-.2-3.3-4.7-6.8-9.2-10.4-13.6-3.2-3.9-6.3-7.4-10-10.5,0,0,0,0-.1,0-4.5,1.5-8.8,3.2-14.5,5.2-1.2.4-2.2.7-3.2,1-8,2.2-16.1,3.5-24.4,3.9-4.4.2-9.1.5-13.8.2-4.3-.3-8.5-.9-12.6-1.7-4.3-.9-7.2-1.5-8.7-1.9-5.5-1.5-11.9-4.1-17.8-6.4-.1,0-.2,0-.3,0-1.8,1.2-3.6,2.6-5.2,4.1-6.1,5.6-11.6,11.9-16.8,18.4,0,0,0,.2,0,.2,1.2,1.6,2.4,3.3,3.4,4.9,3.2,5.4,5,11.4,5.2,17.7" vector-effect="non-scaling-stroke"/>
    <path class="st5" d="M126,19.1s0,0,0,0l1,6.5s0,0,0,0c0,0,0,0,0,0l1.9-.3s0,0,0,0c0,0,0,0,0,0l-1.1-6.5s0,0,0,0l2.4-.4s0,0,0,0c0,0,0,0,0,0l-.3-1.4s0,0,0,0c0,0,0,0,0,0l-6.8,1.1s0,0,0,0l.2,1.4s0,0,0,0c0,0,0,0,0,0l2.4-.4" vector-effect="non-scaling-stroke"/>
    <path class="st5" d="M46.4,18.7c-1.6,2.1-1.6,5.9,1.3,6.9,1.2.4,2.6.5,4.1.3,0,0,0,0,0,0l.6-3.9c0,0,0-.1,0-.1l-1.8-.3c0,0,0,0-.1,0l-.4,2.6c0,0,0,.1-.1.1-1.1,0-1.9-.4-2.3-1.2-.6-1.1-.2-3.2,1-3.9,1-.6,2.5-.1,3.4.5,0,0,0,0,.1,0,0,0,0,0,0,0l.7-1.3c0,0,0,0,0-.1-1.9-1.3-4.8-1.6-6.3.4" vector-effect="non-scaling-stroke"/>
    <path class="st5" d="M120.9,23.3c.1.9,0,1.8-1.1,2-1.4.2-1.6-1-1.8-2-.2-1.5-.3-3-.5-4.4,0,0,0,0-.1,0,0,0,0,0,0,0l-1.8.2c0,0,0,0,0,.1.1,1.3.3,2.5.4,3.8.2,1.4.3,2.2.4,2.5.7,1.7,2.9,2,4.5,1.4,1.6-.6,2.2-1.8,2-3.5-.2-1.7-.4-3.4-.7-5.1,0,0,0,0-.1,0l-1.7.2c0,0,0,0,0,.1.2,1.6.4,3.2.6,4.8" vector-effect="non-scaling-stroke"/>
    <path class="st5" d="M59.2,23.9c2-.5,2.4-3.1.9-4.3-1.2-1-3.7-1.2-5.2-1.1,0,0,0,0,0,0l-1.1,7.8s0,0,0,0c0,0,0,0,0,0l1.8.2c0,0,.1,0,.1-.1l.3-2.5c0,0,0-.1.1-.1h.8c0,0,.1.1.1.2l1.5,2.8s0,0,.1,0l2,.2c0,0,0,0,0,0-.5-1.1-1-2.2-1.7-3.2,0,0,0-.1,0-.1" vector-effect="non-scaling-stroke"/>
    <path class="st5" d="M62.8,19.3c-.2,1.4-.3,2.7-.4,4.1-.1,1.6-.3,2.7.7,3.7,1.4,1.4,4.5,1.4,5.5-.5.2-.4.4-1,.4-1.8.2-1.7.3-3.3.4-5,0,0,0,0,0,0h-1.8c0-.1-.1-.1-.1,0,0,0,0,0,0,0-.1,1.6-.2,3.2-.4,4.8-.1,1.2-.5,2-1.8,1.7-1.1-.2-1-1.4-1-2.2.1-1.5.3-3,.4-4.5,0,0,0-.1,0-.1,0,0,0,0,0,0l-1.8-.2c0,0,0,0,0,0" vector-effect="non-scaling-stroke"/>
    <path class="st5" d="M106.9,20.8c-1.7,2.2-.9,6.2,2,7,3.2.8,5.9-1.2,5.6-4.6-.1-1.1-.5-2.1-1.2-2.8-1.7-1.8-4.9-1.6-6.4.3" vector-effect="non-scaling-stroke"/>
    <path class="st5" d="M105,20.3c-3.6-1.5-7.2.7-6.6,4.8.5,3.8,4.4,4.2,7.2,2.8,0,0,.1-.1,0-.2l-.6-1.3c0,0,0,0-.1,0-2.2,1.1-5,.6-4.7-2.5.3-2.4,2.3-2.6,4.3-1.9,0,0,0,0,0,0,0,0,0,0,0,0l.4-1.4c0,0,0-.1,0-.1" vector-effect="non-scaling-stroke"/>
    <path class="st5" d="M71.3,20.2l-.5,7.9c0,0,0,.1.1.1h1.8c0,.1,0,0,0,0v-2.6c.1,0,.2,0,.2,0,1.3,0,3.4.2,4.1-1.3.4-1,.4-1.9-.1-2.8-.9-1.6-4.1-1.4-5.6-1.3,0,0,0,0,0,0" vector-effect="non-scaling-stroke"/>
    <path class="st5" d="M94.4,25.5c1.1.4,1.4,1.6,0,1.7-.9.1-1.8,0-2.6-.4,0,0,0,0,0,0l-.5,1.4c0,0,0,.2,0,.2,1.7.7,5.4,1,6-1.4.6-2.4-1.6-3-3.3-3.6-.8-.3-1.2-1.3,0-1.5.8-.1,1.6,0,2.3.3,0,0,0,0,.1,0l.4-1.5c0,0,0,0,0-.1-1.8-.8-5.5-.8-5.5,2,0,1.9,1.7,2.3,3.2,2.8" vector-effect="non-scaling-stroke"/>
    <path class="st5" d="M87,25.5c1.1-7-9.2-6.9-8.4-.2.2,2,1.3,3.3,3.3,3.6,2.5.5,4.7-.8,5.1-3.4" vector-effect="non-scaling-stroke"/>
    <path class="st5" d="M36.9,35.2c-5,1.2-3.6-6.2.4-3.4,0,0,.1,0,.1,0l.5-1c0,0,0-.1,0-.1-2-1.4-4.8-1.1-5.6,1.4-1.1,3.4,1.8,5.2,4.8,4.4,0,0,0,0,0-.1l-.2-1.1c0,0,0,0-.1,0" vector-effect="non-scaling-stroke"/>
    <path class="st5" d="M144.5,34.8l.7,1.1c0,0,0,0,.1,0l1.3-.2c0,0,0,0,0,0-1.1-2-2.3-3.9-3.6-5.7,0,0,0,0-.1,0l-1.2.2c0,0-.1,0-.1.1-.6,2.2-1.1,4.3-1.5,6.5,0,0,0,.1,0,0l1.3-.2c0,0,.1,0,.1-.1l.2-1.3c0,0,0,0,.1-.1l2.4-.4c0,0,0,0,.1,0" vector-effect="non-scaling-stroke"/>
    <path class="st5" d="M40.4,32s0,0,0,0l-.7,5s0,0,0,0l1.4.2s0,0,0,0l.7-5s0,0,0,0l1.8.3s0,0,0,0l.2-1.1s0,0,0,0l-5.3-.8s0,0,0,0l-.2,1.1s0,0,0,0c0,0,0,0,0,0l1.8.3" vector-effect="non-scaling-stroke"/>
    <path class="st5" d="M134.7,33.6c1.2,1.1,2.3,2.3,3.2,3.5,0,0,0,0,.1,0l1.1-.2c0,0,0,0,0-.1l-.9-6.1c0,0,0,0-.1,0l-1.3.2c0,0,0,0,0,.1l.5,3.5c0,0,0,0,0,0-1-1.1-2.1-2.2-3.2-3.1,0,0,0,0-.2,0h-1.1c0,.1,0,.2,0,.2l.8,6.2c0,0,0,0,0,0l1.3-.2c0,0,.1,0,0-.1l-.5-3.8s0,0,0,0c0,0,0,0,0,0" vector-effect="non-scaling-stroke"/>
    <path class="st5" d="M45.9,35.2s0,0,0,0l2.4.3s0,0,0,0c0,0,0,0,0,0v-1.1c.1,0,.1,0,0,0,0,0,0,0,0,0l-2.4-.3s0,0,0,0c0,0,0,0,0,0v-1c.1,0,.2,0,.2,0l2.8.3s0,0,0,0v-1.1c.1,0,.1,0,0,0l-4.3-.5s0,0,0,0l-.8,6.2s0,0,0,0c0,0,0,0,0,0l4.5.6s0,0,0,0c0,0,0,0,0,0v-1.1c.1,0,0,0,0,0l-3-.4s0,0,0,0c0,0,0,0,0,0l.2-1.4" vector-effect="non-scaling-stroke"/>
    <path class="st5" d="M129.1,35.6s0,0,0,0l2.4-.3s0,0,0,0v-1.1c-.1,0-.2,0-.2,0l-2.4.3s0,0,0,0c0,0,0,0,0,0v-1c0,0,0,0,0,0l2.7-.3s0,0,0,0c0,0,0,0,0,0v-1.1c-.2,0-.2,0-.2,0l-4.2.5s0,0,0,0l.7,6.2s0,0,0,0l4.5-.6s0,0,0,0c0,0,0,0,0,0v-1.1c-.1,0-.2,0-.2,0,0,0,0,0,0,0l-3,.4s0,0,0,0l-.2-1.4" vector-effect="non-scaling-stroke"/>
    <path class="st5" d="M124.7,36.3c.2,1.8-1.9,2-2.1.5-.1-.7-.3-2.1-.4-4.1,0,0,0,0,0,0h-1.3c0,.1,0,.2,0,.2.1,1.3.2,2.6.4,3.9.2,1.7,1.1,2.5,2.7,2.4,1.2,0,2.3-.7,2.5-2,0-.2,0-.9-.1-2.1,0-.9-.2-1.8-.3-2.7,0,0,0,0,0,0h-1.3c0,.1,0,.2,0,.2.1,1.3.3,2.5.4,3.8" vector-effect="non-scaling-stroke"/>
    <path class="st5" d="M56.1,37.8s0,0,0,0c0,0,0,0,0,0l.5-5s0,0,0,0c0,0,0,0,0,0h-1.4c0-.1,0-.1,0,0,0,0,0,0,0,0l-.6,6.3s0,0,0,0l4.3.4s0,0,0,0c0,0,0,0,0,0v-1.2c.1,0,0,0,0,0,0,0,0,0,0,0l-2.7-.3" vector-effect="non-scaling-stroke"/>
    <path class="st5" d="M59.9,38.1c.3,1.3,1.7,1.9,3,1.8,1.4-.1,2.1-1,2.2-2.4.1-1.3.2-2.6.3-3.9,0,0,0-.1,0-.1h-1.3c0-.1,0,0,0,0-.1,1.3-.2,2.7-.3,4-.1,1.5-2.2,1.5-2.1-.3,0-1.3.2-2.5.3-3.8,0,0,0-.1,0-.1h-1.3c0-.1,0-.1,0,0,0,1-.2,1.9-.3,2.9,0,1.1-.1,1.8,0,2" vector-effect="non-scaling-stroke"/>
    <path class="st5" d="M118.8,35.9c1.1-.9.4-2.4-.8-2.6-1-.2-2.2-.1-3.5.3,0,0,0,0,0,.1l.5,6c0,0,0,0,.1.1,1.1.1,2.1,0,3.2-.2,1.8-.4,2.5-2.6.6-3.6,0,0,0,0,0-.1" vector-effect="non-scaling-stroke"/>
    <path class="st5" d="M68.3,33.7s0,0,0,0h-1.4c0,0,0,0,0,0h0s-.4,6.3-.4,6.3c0,0,0,0,0,0h1.4c0,0,0,0,0,0h0s.4-6.3.4-6.3" vector-effect="non-scaling-stroke"/>
    <path class="st5" d="M69.1,39.9c1.6.7,4.8,1.1,4.7-1.6,0-1.3-1.4-1.8-2.5-2.3-.6-.2-.7-.9,0-1.1.6,0,1.2,0,1.8.3,0,0,.1,0,.1,0l.4-1c0,0,0-.1,0-.1-1.4-.7-4.1-.9-4.3,1.3-.3,2.2,3.4,2.1,2.9,3.3-.3.8-2.2.2-2.7,0,0,0,0,0,0,0l-.4,1c0,0,0,.2,0,.2" vector-effect="non-scaling-stroke"/>
    <path class="st5" d="M109.6,38.8l.5,1.2s0,0,0,0h1.4c0-.1,0-.1,0-.2-.9-2.1-1.9-4.1-3-6.1,0,0,0,0-.1,0h-1.2c0,0,0,.1-.1.2-.8,2.1-1.5,4.2-2.1,6.3,0,0,0,0,0,0h1.3c0,0,.1,0,.1-.1l.4-1.3s0,0,0,0h2.4c0-.1.1,0,.1,0" vector-effect="non-scaling-stroke"/>
    <path class="st5" d="M100.6,38.4h.7s0,0,.1,0l1.4,1.9s0,0,.1,0h1.5c0,0,.1-.1,0-.2-.5-.8-1-1.5-1.6-2.2,0,0,0,0,0-.1.7-.3,1-.8,1.1-1.5.1-2.7-3.2-2.5-5-2.1,0,0,0,0,0,0l.2,6.1c0,0,0,0,0,0h1.4c0,0,0,0,0-.1v-1.9c0,0,0,0,0,0" vector-effect="non-scaling-stroke"/>
    <path class="st5" d="M78.9,38.5c1.4,0,3.1-.1,3.2-2,.2-2.5-2.9-2.5-4.7-2.2,0,0,0,0,0,0l-.2,6c0,0,0,0,0,0h1.3c0,0,0,0,0,0v-1.9c0,0,.1,0,.2,0" vector-effect="non-scaling-stroke"/>
    <path class="st5" d="M84.9,34.4s0,0,0,0h-1.4s0,0,0,0v6.3c0,0,0,0,0,0h1.4s0,0,0,0h0v-6.3" vector-effect="non-scaling-stroke"/>
    <path class="st5" d="M87.9,36.8s0,0,0,0h0v-1.1s0,0,0,0h2.8s0,0,0,0h0v-1.1s0,0,0,0h-4.3s0,0,0,0v6.3c0,0,0,0,0,0h4.6s0,0,0,0h0v-1.1s0,0,0,0h-3s0,0,0,0h0s0-1.4,0-1.4c0,0,0,0,0,0h2.4s0,0,0,0h0s0-1.1,0-1.1c0,0,0,0,0,0h-2.4" vector-effect="non-scaling-stroke"/>
    <path class="st5" d="M92.2,40.8c2.2.3,5.2.2,5.6-2.7.4-3.7-3-4-5.6-3.6,0,0-.2,0-.2.2v6c0,.1.1.2.2.2" vector-effect="non-scaling-stroke"/>
    <path class="st5" d="M51.2,37.9c0-.5-.3-.9-.8-1,0,0,0,0,0,0-.5,0-1,.2-1,.7h0c0,.5.3.9.8,1h0c.5,0,1-.2,1-.7h0" vector-effect="non-scaling-stroke"/>
    <path class="st8" d="M83.9,75.4c0,.1-.2.2-.3.3-4.2,4.3-7.8,9-10.8,14.2,0,0,0,0,0,.1,4.3,4.4,7.6,9.4,10.2,15.1,0,0,0,.2,0,.2" vector-effect="non-scaling-stroke"/>
    <path class="st4" d="M83.1,105.3l-.2,5.2" vector-effect="non-scaling-stroke"/>
    <path class="st8" d="M82.9,110.6c-2.9-5.5-7.4-9.9-12.6-13.3,0,0,0,0,0,0-1.2,2.4-1.9,4.9-2,7.6-.1,4.1.5,8.3,1.3,12.2,0,0,0,0,.1,0,0,0,0,0,0,0,3.6-1.2,8.1-1.5,10.3,2.3" vector-effect="non-scaling-stroke"/>
    <path class="st4" d="M80.1,119.4c-6.5,4.1-13.6-2.7-16.9-7.6,0,0,0,0,0-.1,0,0,0,0,0,0,.9-.3,1.7-.8,2.4-1.3.1,0,.1-.2,0-.3,0,0,0,0,0,0-1.3-1.7-2.5-3.4-3.7-5.2-.9-1.3-1.4-2.4-1.8-3.3-.3-.7-.8-1.9-1.4-2.2-.9-.4-2,1.2-2.4,1.8-2.7,4.3-3.3,10.2-.2,14.5,0,0,.2.1.3,0,0,0,0,0,0,0l1.1-.9s0,0,0,0c.4.9.9,2,1.3,2.8,3,5.6,8.4,9.6,14,12.1,2.3,1,4.5,2,6.7,3.2" vector-effect="non-scaling-stroke"/>
    <path class="st8" d="M79.6,133c-.7,2.6-1.7,5.1-2.8,7.6,0,0,0,0,0,0,0,0,0,0,0,0,1.6-2.1,3.1-4.3,4.4-6.6" vector-effect="non-scaling-stroke"/>
    <path class="st4" d="M81.3,134c1,.7,2,1.4,2.9,2.3" vector-effect="non-scaling-stroke"/>
    <path class="st8" d="M84.2,136.3c-1,1.8-2.3,3.5-3.7,4.9,0,0,0,0,0,0,0,0,0,0,0,0,2.3-.4,4.3-1.2,6.4-2.1" vector-effect="non-scaling-stroke"/>
    <path class="st4" d="M87,139.2c1.5.8,2.6-.6,3.4-1.8" vector-effect="non-scaling-stroke"/>
    <path class="st8" d="M90.3,137.5c2.2-1.4,4.1-2.8,5.9-4.9" vector-effect="non-scaling-stroke"/>
    <path class="st4" d="M96.2,132.6c1.7-.7,3.4-1.4,5.1-2,6.7-2.6,12.4-6.4,15.7-13,.3-.6.7-1.5,1.2-2.7,0,0,0,0,0,0,0,0,0,0,0,0l1.1,1c0,0,.2,0,.2,0,0,0,0,0,0,0,.8-1.1,1.3-2.3,1.7-3.5,1.1-3.9,0-9.5-3-12.5-1.7-1.7-2.6,1.9-3.1,2.8-1.4,2.7-3.1,5.2-5,7.5,0,0,0,.2,0,.2.7.6,1.6,1.1,2.5,1.4,0,0,0,0,0,.1-2.8,6.5-8.7,9.4-15.6,9" vector-effect="non-scaling-stroke"/>
    <path class="st8" d="M97.2,120.8c-.8-2.3-1.2-4.8-1.4-7.3-.5-9,5-13.5,13.4-14.1.1,0,.2,0,.3-.2,1.2-2.4,2.1-5,2.7-7.7,1.2-5.8,1.7-11.7,1.4-17.6,0,0,0,0,0,0,0,0,0,0,0,0-8.6,6.6-17.2,15.4-20.6,25.9" vector-effect="non-scaling-stroke"/>
    <path class="st4" d="M92.9,99.9v-11.4" vector-effect="non-scaling-stroke"/>
    <path class="st8" d="M92.9,88.5c2.4-5.5,5.5-10.6,9.3-15.3" vector-effect="non-scaling-stroke"/>
    <path class="st4" d="M102.2,73.2c1.1-.2,2.2-.3,3.2-.5,1.4-.2,2.2-1.1,2.3-2.5,0-1.1.2-2.3-.3-3.3" vector-effect="non-scaling-stroke"/>
    <path class="st8" d="M107.4,66.9l5.1-5.4c0,0,0,0,0,0-4.1.2-8.1,1.1-11.9,2.7" vector-effect="non-scaling-stroke"/>
    <path class="st4" d="M100.6,64.1c-.2-.3-.4-.4-.7-.5-1.1-.3-2.6-.3-3.4.7,0,0,0,0-.1,0l-3.4-.5c0,0,0,0,0-.1v-1.1" vector-effect="non-scaling-stroke"/>
    <path class="st12" d="M92.9,62.6l1.4,1.3s0,0,.1,0c0,0,0,0,0,0l.4-2.6c0,0,0,0,0-.1l2.6-1.3c0,0,0,0,0,0l-1.7-.9" vector-effect="non-scaling-stroke"/>
    <path class="st4" d="M95.8,58.8c.7-1.3,1-2.7,1-4.1,0-4.5-4.1-8.4-8.7-8.1-8.1.6-10.7,10.8-3.8,15.3,0,0,0,0,0,0v1.7c0,0,0,0-.1.1l-4.1.6s-.1,0-.1,0c-.7-.9-1.7-1-2.8-.9-1,0-1.6.6-2,1.6,0,0,0,0-.1,0-.9.1-1.8.3-2.6.4-.9.1-1.5.3-1.8.5-1.4.9-1.2,2.7-1.2,4.2,0,1.8,1.2,2.4,2.9,2.6.9.1,1.8.2,2.7.4,0,0,0,0,.1,0,.6,1.6,1.6,1.6,3,1.6.8,0,1.3-.3,1.9-.8,0,0,.1,0,.2,0l3.8.5c0,0,.1,0,.1.1v.9" vector-effect="non-scaling-stroke"/>
    <path class="st2" d="M95.8,58.8l-.8-.4c0,0,0,0,0-.1l-.3-1.6" vector-effect="non-scaling-stroke"/>
    <path class="st10" d="M94.6,56.7l.5-.9s0,0,.1,0c0,0,0,0,0,0l-.2,1.6s0,0,0,0c0,0,0,0,0,0,.5-1.3.6-2.9.3-4.2-.8-3.5-4-5.8-7.6-5.5-.6,0-1.2.3-1.6.7,0,0,0,0,0,0,0,0,0,0,0,0,.8-.2,1.6-.3,2.3-.4.1,0,.3.1.3.2,0,0,0,0,0,0v1.4c0,.2-.1.3-.3.3,0,0,0,0,0,0-.8,0-1.6.2-2.4.5,0,0,0,0,0,.1,0,0,0,0,0,0,1.2-.4,2.2-.2,3.4.2,1.8.5,2.8,1.9,3,3.8,0,0,0,0,0,.1.1,0,.2.2.2.4,0,.5,0,1,0,1.6" vector-effect="non-scaling-stroke"/>
    <path class="st2" d="M92.8,56.9l-.5.5s0,0-.2,0l-1.2-.2" vector-effect="non-scaling-stroke"/>
    <path class="st10" d="M91,57.2c-.6-.4-1.3-.5-2-.5-.8,0-2.1.1-2.7.6,0,0,0,0,0,0,1-.2,1.9-.3,2.9-.2" vector-effect="non-scaling-stroke"/>
    <path class="st2" d="M89.3,57.2l.2.4" vector-effect="non-scaling-stroke"/>
    <path class="st10" d="M89.5,57.6c-.7,0-1.3.2-1.9.4-.3.1-.3.2,0,.1h.7c0,0,.1,0,.2,0,0,.1.1.3.1.5,0,1.6,0,3.2,0,4.7,0,.1.1.3.2.3,0,0,0,0,0,0,.9,0,1.8,0,2.6.2.1,0,.2,0,.2-.2,0,0,0,0,0,0v-1.7" vector-effect="non-scaling-stroke"/>
    <path class="st2" d="M91.9,61.8c.4.1.7.4,1,.8" vector-effect="non-scaling-stroke"/>
    <path class="st6" d="M100.6,64.1l-1.4.5" vector-effect="non-scaling-stroke"/>
    <path class="st10" d="M99.3,64.7c-.8,0-1.8-.1-2,.7,0,0,0,0,0,0,.4-.5.8-.7,1.4-.4" vector-effect="non-scaling-stroke"/>
    <path class="st6" d="M98.7,64.9l-2.6,1.3" vector-effect="non-scaling-stroke"/>
    <path class="st10" d="M96.1,66.3v-.7c0,0,0-.1-.1-.1-.2,0-.6-.1-1-.2-2-.3-4.1-.7-6.1-.7-2.4,0-5.1.5-7.3.8-.3,0-.8,0-1.2.2,0,0-.1.2,0,.2,0,0,0,.1.2.1.2,0,.4,0,.7,0,1.2-.3,2.3-.5,3.5-.7.6-.1,3.6-.4,4.2.2,0,0,0,0,0,0-.8,0-1.7,0-2.5.1,0,0,0,0,0,0,0,0,0,0,0,0h2c.2,0,.4.2.4.4v5.3" vector-effect="non-scaling-stroke"/>
    <path class="st6" d="M88.8,71.2l-4.8,4.2" vector-effect="non-scaling-stroke"/>
    <path class="st6" d="M107.4,66.9l-.8.9" vector-effect="non-scaling-stroke"/>
    <path class="st11" d="M106.6,67.8l-2.2,2.6" vector-effect="non-scaling-stroke"/>
    <path class="st6" d="M104.4,70.4l-.7.9" vector-effect="non-scaling-stroke"/>
    <path class="st11" d="M103.7,71.2c0,0-.1.1-.2.2" vector-effect="non-scaling-stroke"/>
    <path class="st6" d="M103.5,71.4l-1.3,1.7" vector-effect="non-scaling-stroke"/>
    <path class="st6" d="M92.9,88.5l-1.1,2.8" vector-effect="non-scaling-stroke"/>
    <path class="st11" d="M91.8,91.3c-3.8,10-3.8,20,0,29.9.8,2.1,1.8,4.2,2.9,6.3" vector-effect="non-scaling-stroke"/>
    <path class="st6" d="M94.6,127.4l.6,1.2" vector-effect="non-scaling-stroke"/>
    <path class="st11" d="M95.3,128.6l.3.5" vector-effect="non-scaling-stroke"/>
    <path class="st6" d="M95.5,129.1l1.3,2.3c0,0,0,.1,0,.2l-.6,1" vector-effect="non-scaling-stroke"/>
    <path class="st6" d="M90.3,137.5l-3.4,1.8" vector-effect="non-scaling-stroke"/>
    <path class="st6" d="M84.2,136.3c5.3-9.5,3.2-21.4-.9-30.8,0,0,0,0-.1-.2" vector-effect="non-scaling-stroke"/>
    <path class="st11" d="M88.8,71.2c2.3-1.8,4.8-3.5,7.3-4.9" vector-effect="non-scaling-stroke"/>
    <path class="st11" d="M98.7,64.9l.6-.3" vector-effect="non-scaling-stroke"/>
    <path class="st7" d="M91.9,61.8l-2.6.4s0,0,0,0c0,0,0,0,0,0l1.3-2.6s0,0,0-.1l-1-1.7" vector-effect="non-scaling-stroke"/>
    <path class="st7" d="M89.3,57.2c0,0,0-.1,0-.2,0,0,0,0,0,0,0,0,0,0,0,0l1.7.2" vector-effect="non-scaling-stroke"/>
    <path class="st7" d="M94.6,56.7l-.2-1.2c0,0,0,0-.1,0h-.2" vector-effect="non-scaling-stroke"/>
    <path class="st10" d="M94.1,55.6c0,0,0-.1,0-.2,0,0,0-.1-.1-.2,0,0-.1,0-.1,0-.2.3-.3.6-.4.9" vector-effect="non-scaling-stroke"/>
    <path class="st7" d="M93.4,56.3l-.6.6" vector-effect="non-scaling-stroke"/>
    <path class="st10" d="M103.7,71.2c.5-.1.9-.3,1.4-.7,0,0,0-.1,0-.2,0,0,0,0-.1,0h-.6" vector-effect="non-scaling-stroke"/>
    <path class="st10" d="M91.9,110.5c0,2,0,3.9,0,5.9,0,.4.1.8.3,1.2.7,2.5,2.3,3.9,4.9,4.1" vector-effect="non-scaling-stroke"/>
    <path class="st10" d="M97.6,122c7.2,0,12.9-2.8,16.1-9.4,1.2-2.5,2.7-4.9,4-7.3,0,0,0,0,0,0,0,0,0,0,0,0,1.1,4.7-.1,9.1-2.6,13.2,0,0,0,0,0,0,0,0,0,0,0,0,.5-1.5,1.2-3.2,1.4-4.8,0,0,0,0,0,0,0,0,0,0,0,0-1.4,2.4-2.9,4.7-4.6,6.9-3,3.8-7.5,6.4-11.9,8.3-.3.1-.3,0,0,0,.3-.2.6-.4,1.1-.7,0,0,.2-.1.2-.2,0,0,0,0,0,0,0,0,0,0,0,0-1.3.5-2.6.9-4,1.2-.4,0-1.1.1-1.6.3" vector-effect="non-scaling-stroke"/>
    <path class="st10" d="M95.3,128.6c.9-.4,1.8-.9,2.6-1.6,0,0,0-.1,0-.2,0,0,0,0-.1,0-.9.4-2,.6-3.1.6" vector-effect="non-scaling-stroke"/>
    <path class="st10" d="M103.5,71.4c1,.1,1.8,0,2.5-.6,0,0,.1,0,.1,0v.2c0,0,0,.1.1,0,.5-.8.4-2.4.3-3.3" vector-effect="non-scaling-stroke"/>
    <path class="st10" d="M91.9,104.1v-12.8" vector-effect="non-scaling-stroke"/>
    <path class="st2" d="M94.1,55.6l-.7.7" vector-effect="non-scaling-stroke"/>
    <path class="st6" d="M82.9,110.6c.3.7.6,1.3.7,1.6,3.1,7.6,1.4,15-2.4,21.9" vector-effect="non-scaling-stroke"/>
    <path class="st6" d="M79.6,133c.7-2.3,1.2-4.7,1.4-7.1" vector-effect="non-scaling-stroke"/>
    <path class="st11" d="M81,125.9v-.5" vector-effect="non-scaling-stroke"/>
    <path class="st6" d="M81,125.4v-1.7" vector-effect="non-scaling-stroke"/>
    <path class="st11" d="M81,123.7c0-1.1-.2-2.2-.5-3.2" vector-effect="non-scaling-stroke"/>
    <path class="st6" d="M80.5,120.4l-.4-1" vector-effect="non-scaling-stroke"/>
    <path class="st4" d="M92.9,114.6c0,2.5.5,5,3.2,5.9" vector-effect="non-scaling-stroke"/>
    <path class="st6" d="M97.2,120.8l.4,1.2" vector-effect="non-scaling-stroke"/>
    <path class="st11" d="M97.6,122v.4c.2,0,.1,0,0,.1,0,0,0,0,0,0l-.6-.7" vector-effect="non-scaling-stroke"/>
    <path class="st6" d="M97.1,121.8l-1-1.3" vector-effect="non-scaling-stroke"/>
    <path class="st8" d="M96,120.5c-1.4-2-2.3-3.7-3.2-5.9" vector-effect="non-scaling-stroke"/>
    <path class="st6" d="M92.9,114.6c-.4-1.3-.8-2.7-1-4" vector-effect="non-scaling-stroke"/>
    <path class="st11" d="M91.9,110.5c-.3-2.2-.3-4.3,0-6.5" vector-effect="non-scaling-stroke"/>
    <path class="st6" d="M91.9,104.1l1-4.2" vector-effect="non-scaling-stroke"/>
    <path class="st10" d="M81,123.7c-.2,0-.5,0-.9,0-2.3.3-4.6.2-7-.3,0,0,0,0,0,0,0,0,0,0,0,0,.3.6,2.4,1.3,3.1,1.4,1.6.3,3.2.5,4.8.5" vector-effect="non-scaling-stroke"/>
    <path class="st10" d="M80.5,120.4c-7.3,4.7-15.6-3.3-19-9-1.1-2-2.3-3.9-3.4-5.9,0,0-.1-.1-.2,0,0,0,0,0,0,0,0,.9,0,1.9,0,2.8,0,.3-.1.6-.1.9,0,0,0,0,0,0,0,0,0,0,0,0h.2c0,0,.1,0,.1,0,.5,1,0,1.9.3,2.9,0,.3.1.3.2,0,0-.1,0-.3.1-.6,0,0,0-.1,0-.1,0,0,.2,0,.2.1.4,1,.9,2.2,1.3,3.1,1.6,3.1,3.7,5.8,6.4,8.1,3.6,3.1,8.5,3.8,13.1,4.2,0,0,0,0,0,0,0,0,0,0,0,0,0,0,0,0,0,0-1.2-.2-2.3-.5-3.5-.9,0,0-.1-.1,0-.2,0,0,0,0,.1,0,.6,0,1.3.1,1.9.1.9,0,1.7,0,2.6,0" vector-effect="non-scaling-stroke"/>
    <path class="st12" d="M120.5,59.8s0,0,0,0l1.9,2.3s0,0,0,0c0,0,0,0,0,0l.7-2.6s0,0,0,0l2.8-1s0,0,0,0c0,0,0,0,0,0l-2.4-1.6s0,0,0,0l-.2-2.9s0,0,0,0c0,0,0,0,0,0l-2.1,1.6s0,0,0,0l-2.9-.8s0,0,0,0c0,0,0,0,0,0l1,2.5s0,0,0,0l-1.6,2.4s0,0,0,0c0,0,0,0,0,0h2.8" vector-effect="non-scaling-stroke"/>
    <path class="st12" d="M116.9,86.6s0,0,0,0c0,0,0,0,0,0h2.8s0,0,0,0l1.9,2.4s0,0,0,0c0,0,0,0,0,0l.8-2.6s0,0,0,0l2.8-.9s0,0,0,0c0,0,0,0,0,0l-2.3-1.7s0,0,0,0v-3c-.1,0-.1,0-.2,0,0,0,0,0,0,0l-2.2,1.6s0,0,0,0l-2.9-.9s0,0,0,0c0,0,0,0,0,0l.9,2.6s0,0,0,0l-1.7,2.4" vector-effect="non-scaling-stroke"/>
    <path class="st5" d="M55.2,146l-1.1-4s0,0,0,0l-1.4-.2c0,0-.1,0-.2.1l-1.6,6.3c0,0,0,.1,0,.2l1.4.2c0,0,0,0,0,0l.9-4.1c0,0,0,0,0,0l.9,3.6s0,0,0,0h1c0,.1.1.1.1,0l1.8-3c0-.1.1-.1,0,0l-.4,4.1s0,0,0,0l1.4.2c0,0,.1,0,.1-.1l.3-6.5c0,0,0-.1-.1-.1l-1.3-.2c0,0-.1,0-.1,0l-2.2,3.5c0,0,0,0,0,0" vector-effect="non-scaling-stroke"/>
    <path class="st5" d="M126.6,147.2l.7,1.2c0,0,0,0,.1,0l1.4-.2c0,0,0,0,0-.1-1.2-2.1-2.5-4.1-3.8-6,0,0,0,0-.2,0l-1.3.2c0,0,0,0-.1,0-.6,2.3-1.2,4.6-1.6,6.9,0,0,0,0,0,0l1.4-.2c0,0,.1,0,.1-.1l.3-1.3c0,0,0,0,0,0l2.5-.4c0,0,.1,0,.1,0" vector-effect="non-scaling-stroke"/>
    <path class="st5" d="M118,144.3s0,0,0,0l.7,5.3s0,0,0,0c0,0,0,0,0,0l1.5-.2s0,0,0,0c0,0,0,0,0,0l-.7-5.3s0,0,0,0h0s1.9-.3,1.9-.3c0,0,0,0,0,0l-.2-1.1s0,0,0,0l-5.6.7s0,0,0,0v1.1c.1,0,.2,0,.2,0,0,0,0,0,0,0l1.9-.2" vector-effect="non-scaling-stroke"/>
    <path class="st5" d="M64.4,148.7l.4,1.3c0,0,0,.1.1.1l1.5.2c0,0,0,0,0,0-.6-2.3-1.3-4.6-2-6.8,0,0,0,0-.1,0h-1.3c0-.1-.1-.1-.1,0-1.2,2-2.4,4.1-3.4,6.2,0,0,0,.1,0,.1l1.4.2c0,0,.1,0,.1,0l.6-1.2s0,0,.1,0l2.6.3s0,0,0,0" vector-effect="non-scaling-stroke"/>
    <path class="st5" d="M112.2,149l2.5-.3c0,0,.1,0,.1,0l.6,1.2c0,0,0,0,.1,0l1.4-.2c0,0,0,0,0-.1-1.1-2.1-2.2-4.2-3.5-6.2,0,0,0,0-.2,0h-1.3c0,.1,0,.2-.1.2-.8,2.2-1.4,4.5-2,6.8,0,0,0,0,0,0h1.5c0-.1.1-.2.1-.2l.3-1.3c0,0,0,0,.1-.1" vector-effect="non-scaling-stroke"/>
    <path class="st5" d="M69.2,148.4h.6c0,0,.1,0,.2.2l1.2,2.2s0,0,.1,0h1.7c0,.1,0,.1,0,0,0,0,0,0,0,0-.4-.9-.9-1.7-1.5-2.5,0,0,0,0,0-.1.9-.3,1.4-1,1.4-2,0-2.4-3.2-2.5-5-2.3,0,0,0,0-.1.1l-.6,6.4c0,0,0,0,0,0h1.5c0,.1,0,0,0,0l.2-2c0,0,0,0,0,0" vector-effect="non-scaling-stroke"/>
    <path class="st5" d="M106.4,149.5s0,0,0,0c0,0,0,0,0,0l-.4-5.2s0,0,0,0h-1.5c0,0,0,0,0,.1,0,0,0,0,0,0l.4,6.6s0,0,0,0l4.6-.4s0,0,0,0c0,0,0,0,0,0v-1.3c-.1,0-.2,0-.2,0l-2.9.2" vector-effect="non-scaling-stroke"/>
    <path class="st5" d="M76.5,151.2c2.2.6,5.7.6,6.2-2.4.6-4-2.8-4.4-5.8-4.1,0,0,0,0,0,0l-.4,6.4c0,0,0,0,0,0" vector-effect="non-scaling-stroke"/>
    <path class="st5" d="M99.9,149c1,0,2.5-.2,3-1.1.5-.9.3-2.3-.6-2.9-1-.7-3.1-.5-4.2-.2,0,0,0,0,0,0l.2,6.3c0,.1,0,.2.2.2h1.4c0,0,.1,0,.1-.2v-2.1c-.1,0,0,0,0,0,0,0,0,0,0,0" vector-effect="non-scaling-stroke"/>
    <path class="st5" d="M85.6,150.2s0,0,0,0h0s0-1.5,0-1.5c0,0,0,0,0,0h2.5s0,0,0,0v-1.2c0,0,0,0,0,0,0,0,0,0,0,0h-2.6s0,0,0,0h0v-1.1s0,0,0,0c0,0,0,0,0,0h2.9c0,0,0,0,0,0h0s0-1.2,0-1.2c0,0,0,0,0,0h-4.5c0,0,0,0,0,0h0s-.1,6.6-.1,6.6c0,0,0,0,0,0h4.9c0,0,0,0,0,0h0v-1.1s0,0,0,0h-3.2" vector-effect="non-scaling-stroke"/>
    <path class="st5" d="M91.8,150.1s0,0,0,0v-5.2c0,0,0,0-.1,0h-1.5s0,0,0,0v6.6s0,0,0,0h4.6c0,0,0,0,0-.1v-1.3s0,0,0,0h-2.9" vector-effect="non-scaling-stroke"/>
    <path class="st5" d="M56.6,20.3l-.2,1.9s0,0,0,0c0,0,0,0,0,0h1c.8.2,1.5-.1,1.6-.7,0,0,0,0,0,0v-.2c0-.5-.5-1-1.3-1.1h-1c0-.1,0,0,0,0,0,0,0,0,0,0" vector-effect="non-scaling-stroke"/>
    <path class="st5" d="M110.7,21c-3.6-.7-3.6,5.3-.5,5.3,3,0,2.8-4.8.5-5.3" vector-effect="non-scaling-stroke"/>
    <path class="st5" d="M73.1,22v1.8c0,.1,0,.2.1.2,0,0,0,0,0,0h.8c.7,0,1.3-.3,1.3-.8,0,0,0,0,0,0v-.4c0-.5-.5-.9-1.2-1,0,0,0,0,0,0h-.8c-.1,0-.2,0-.2.2,0,0,0,0,0,0" vector-effect="non-scaling-stroke"/>
    <path class="st5" d="M83.4,22c-3.4-.9-3.9,5.1-.7,5.2,2.9.1,3.2-4.6.7-5.2" vector-effect="non-scaling-stroke"/>
    <path class="st5" d="M142.2,33.8s0,0,0,0c0,0,0,0,0,0l1.4-.2s0,0,0,0c0,0,0,0,0,0l-1.1-1.8s0,0,0,0c0,0,0,0,0,0l-.4,2.1" vector-effect="non-scaling-stroke"/>
    <path class="st5" d="M116,34.6v.9c0,0,0,.2.2.2h.6c.5,0,.9-.3.9-.6,0,0,0,0,0,0h0c0-.4-.4-.7-.9-.7h-.6c-.1,0-.2,0-.2.2s0,0,0,0" vector-effect="non-scaling-stroke"/>
    <path class="st5" d="M116.2,37.1v1.4c.1,0,.2.1.3.1h.7c.7-.1,1.2-.5,1.1-.9v-.2c0-.4-.6-.7-1.3-.6,0,0,0,0,0,0h-.7c0,0-.1.1-.1.2,0,0,0,0,0,0" vector-effect="non-scaling-stroke"/>
    <path class="st5" d="M107.4,37.5s0,0,0,0c0,0,0,0,0,0h1.5c0,0,0-.1,0-.2,0,0,0,0,0,0l-.9-2s0,0,0,0c0,0,0,0,0,0l-.6,2.1" vector-effect="non-scaling-stroke"/>
    <path class="st5" d="M100.5,35.6v1.4c0,0,0,.1.1,0h.6c.7,0,1.2-.4,1.2-.7,0,0,0,0,0,0v-.2c0-.4-.6-.7-1.3-.7h-.6c0,0-.1,0,0,.1" vector-effect="non-scaling-stroke"/>
    <path class="st5" d="M78.8,35.7v1.4c0,0,0,.1.1.1h.6c.6,0,1-.3,1-.8,0,0,0,0,0,0h0c0-.5-.4-.9-1-.9h-.6c0,0-.1,0-.1.1h0" vector-effect="non-scaling-stroke"/>
    <path class="st5" d="M93.6,35.7v3.8s0,0,0,0h.7c1,0,1.9-.8,1.9-1.8v-.4c0-1-.8-1.8-1.9-1.8h-.7s0,0,0,0" vector-effect="non-scaling-stroke"/>
    <path class="st10" d="M86.7,56c1.4-.4,3.1-.5,4.5,0,0,0,.1,0,.1,0,0,0,0,0,0,0,.8-2.2-.8-4.4-3.2-4.1-2.1.3-3.1,2.4-2.2,4.3,0,0,0,0,.1,0,.2,0,.5-.2.6-.3" vector-effect="non-scaling-stroke"/>
    <path class="st10" d="M84.1,59.8c0,0,0,.1-.1.1,0,0,0,0-.1,0-.2-.4-.2-.8-.1-1.2,0,0,0,0,0,0,0,0,0,0,0,0l-.2,1c0,0,0,.1,0,.2l.8.8s0,0,.1,0c0,0,0,0,0,0,0-1.1-.1-2.1.4-3.1,0,0,0,0,0,0s0,0,0,0c-.7.8-.6,1.5-.7,2.5" vector-effect="non-scaling-stroke"/>
    <path class="st10" d="M76.7,64.9c.5,0,.9-.1,1.3.1,0,0,0,.1,0,.2,0,0,0,0-.1,0l-.9.2c0,0-.1,0-.1.1-.1,2,0,3.9.2,5.9,0,.4.2.8.3,1.1.4.6,1.4-.4,1.6-.7.1-.2.2-.6.2-1.1,0-1.6,0-3.2,0-4.7,0-1.6-1.3-1.5-2.4-1.3,0,0-.1,0-.2.1,0,0,0,0,0,0" vector-effect="non-scaling-stroke"/>
    <path class="st10" d="M71.1,68c0,0,.2,0,.2,0,0,0,0,0,0,.1,0,.6.2,1,.9,1,.8,0,1.6,0,2.3-.3,0,0,.2,0,.2.1,0,0,0,0,0,0,0,.9-.1,1.8.2,2.7,0,0,0,0,0,0,0,0,0,0,0,0v-5.2c0,0,0-.1-.1-.1,0,0,0,0,0,0-1.1.1-2.2.3-3.3.5-1.4.2-1.1,2-.7,2.9,0,0,0,0,0,0,0,0,0,0,0,0,0-.4,0-.7,0-1.1,0-.2,0-.3.1-.4" vector-effect="non-scaling-stroke"/>
    <path class="st9" d="M73.3,105.4s0,0,0,0l-3.1-.4s0,0,0,0c0,0,0,0,0,0l1.4,2.4s0,0,0,0l-1.3,2.6s0,0,0,0c0,0,0,0,0,0l2.8-.4s0,0,0,0l2.2,2.1s0,0,0,0c0,0,0,0,0,0l.4-2.7s0,0,0,0l2.7-1.4s0,0,0,0c0,0,0,0,0,0l-2.5-1.2s0,0,0,0l-.6-2.9s0,0,0,0c0,0,0,0,0,0l-1.9,1.9" vector-effect="non-scaling-stroke"/>
    <path class="st10" d="M57.8,102.2c0,.3.2.6.3.9,1.4,2.5,2.8,5.1,4.3,7.5,0,0,.1,0,.2,0l1.3-.6c0,0,.1-.1,0-.2,0,0,0,0,0,0-2-2.7-3.9-5.5-5.2-8.8,0-.1-.2-.3-.4-.5,0,0,0,0-.1,0-.6.5-1,1.8-1.1,2.5,0,0,0,0,0,0,0,0,0,0,0,0,0,0,0,0,0,0,.1-.3.2-.6.4-.9,0,0,0,0,.1,0,0,0,0,0,0,0" vector-effect="non-scaling-stroke"/>
    <path class="st10" d="M111.9,110.1c.4.3.9.5,1.4.6,0,0,.1,0,.1,0,1.8-2.9,2.8-5,4.2-7.5.2-.3.2-.6.2-.9,0,0,0-.1.1-.1,0,0,.1,0,.1,0l.5,1.1s0,0,0,0c0,0,0,0,0,0-.1-.9-.4-1.8-.9-2.6,0-.1-.3-.2-.4-.1,0,0,0,0-.1.1-1.4,3.3-3.2,6.2-5.4,9,0,0,0,.2,0,.3,0,0,0,0,0,0" vector-effect="non-scaling-stroke"/>
    <path class="st5" d="M124.5,143.8l-.4,2.2c0,0,0,0,0,0l1.5-.2c0,0,0,0,0-.1l-1.1-2c0,0,0,0,0,0" vector-effect="non-scaling-stroke"/>
    <path class="st5" d="M62.4,147.1l1.5.2c0,0,0,0,0,0l-.6-2.2c0,0,0,0,0,0l-1,2c0,0,0,0,0,.1" vector-effect="non-scaling-stroke"/>
    <path class="st5" d="M113,145.3l-.5,2.2c0,0,0,0,0,0l1.5-.2c0,0,0,0,0-.1l-1-2.1c0,0,0,0,0,0" vector-effect="non-scaling-stroke"/>
    <path class="st5" d="M69.4,145.5v1.3c-.1.1,0,.2,0,.2h.6c.7.1,1.3-.2,1.4-.6h0s0,0,0,0c0-.4-.5-.9-1.2-.9,0,0,0,0,0,0h-.6c-.1,0-.2,0-.2.1" vector-effect="non-scaling-stroke"/>
    <path class="st5" d="M78.4,146l-.2,3.9c0,0,0,.1.1.1,0,0,0,0,0,0h.8c1.1.1,2-.7,2.1-1.8v-.3c0-1.1-.8-2-1.8-2h-.8c0,0-.1,0-.1,0,0,0,0,0,0,0" vector-effect="non-scaling-stroke"/>
    <path class="st5" d="M99.6,146.1v1.6c0,0,.1.1.2.1,0,0,0,0,0,0h.6c.6,0,1.2-.4,1.1-.8v-.3c0-.4-.6-.7-1.2-.7h-.6c0,0-.1,0-.1.1h0" vector-effect="non-scaling-stroke"/>
  </g>
  <path class="st17" d="M140.9,3.3c3.4,2.9,6.4,6.1,9.2,9.5,4.3,5.1,8.3,10.3,12.1,15.8.4.5.3,1.4.2,2,0,0,0,.1,0,.1-3.4,4.4-6.3,10-8.4,15.4-1,2.6-1,5.6-.5,8.6,1.6,8.4,4.3,16.9,7.6,24.8.4.9.8,1.9,1.4,3.1,2.1,4.3,3.6,7.3,5.1,11.2,1.2,3,1.8,6.3,2,9.8.2,3.4.2,6.3.2,8.8-.4,10.4-6.1,19.9-13.8,26.5-7.4,6.4-15.9,10.7-25.1,14.2-9.9,3.8-20,8.6-28.9,13.3-4.3,2.3-8.7,5.3-12.2,8.7-.4.4-1.8.3-2.4.3,0,0-.1,0-.1,0-2.5-2.2-5.1-4.3-7.9-6.2-2.4-1.7-4.8-3.4-7.3-4.9-6.8-4.2-14.3-6.8-22-9.1-12.8-3.8-23.6-10.9-32.1-21.2-1-1.2-2.1-2.9-3.2-5.1-2.8-5.4-4.6-11.5-4.7-17.6,0-3.7.1-7.3.5-10.7,1.1-8.8,6.1-17,10.3-24.6,1.9-3.4,3.5-7.4,4.8-11.8,1.3-4.5,1.9-8.9,1.8-13.1-.2-6.5-2.4-12.8-6-18.1-.6-.9-1.4-2.1-2.5-3.5,0,0,0-.1,0-.2v-2c0,0,0-.1,0-.2.2-.2.4-.4.6-.6,3.6-4.6,7.4-8.9,11.2-12.9,3.4-3.5,7.2-7.2,11.2-9.9.5-.3,1.1-.5,1.8-.7.2,0,.4,0,.7,0,6.9,2.7,11.7,4.8,18,6.4,8.7,2.3,18.1,3.9,27.2,3.7,12.2-.3,24.2-1.5,35.7-5.7,4.2-1.5,8.3-3,12.5-4.5,1.2-.4,1.9-.5,2.9.3ZM30.4,51.2c.2,8.8-2.8,18.3-6.7,25.7-2.2,4.2-5.1,9.1-7.3,13.9-1.6,3.5-2.8,7.3-3.1,11.1-.3,3.3-.4,6.7-.4,10,0,.2,0,.5,0,.9.1.7.1,1.6.2,2.2.8,6.5,3.6,13.4,7.9,18.4,6.4,7.5,14.5,13.4,23.5,17,2.5,1,5.3,2,8.5,2.9,8.1,2.4,16,5.6,23,10.3,4.2,2.8,8.3,5.8,12.1,9.1,0,0,.1,0,.2,0,2.5-2.3,5.1-4.4,8-6.2,1.8-1.1,3.1-1.9,3.8-2.3,6.3-3.3,12.6-6.4,19.1-9.3,3.7-1.7,7.5-3.2,11.3-4.7,14.8-5.7,29.6-14.4,35.1-30.2.9-2.5,1.2-5.1,1.3-7.7.1-3.3,0-6.7-.2-10-.7-8.1-5.8-15.7-8.6-22.7-2.6-6.7-4.8-13.2-6.5-20.3-.4-1.7-.7-3.4-1-5.1-.6-3.7-.3-7,1.2-10.4,0,0,.4-.9,1.2-2.5.9-1.9,1.8-3.8,2.7-5.5,1.2-2.1,2.5-4,3.9-6,0,0,0-.1,0-.2-3.3-4.7-6.8-9.2-10.4-13.6-3.2-3.9-6.3-7.4-10-10.5,0,0,0,0-.1,0-4.5,1.5-8.8,3.2-14.5,5.2-1.2.4-2.2.7-3.2,1-8,2.2-16.1,3.5-24.4,3.9-4.4.2-9.1.5-13.8.2-4.3-.3-8.5-.9-12.6-1.7-4.3-.9-7.2-1.5-8.7-1.9-5.5-1.5-11.9-4.1-17.8-6.4-.1,0-.2,0-.3,0-1.8,1.2-3.6,2.6-5.2,4.1-6.1,5.6-11.6,11.9-16.8,18.4,0,0,0,.2,0,.2,1.2,1.6,2.4,3.3,3.4,4.9,3.2,5.4,5,11.4,5.2,17.7Z"/>
  <path class="st15" d="M23.7,76.9c3.9-7.5,6.9-17,6.7-25.7-.2-6.3-2-12.3-5.2-17.7-1-1.6-2.2-3.3-3.4-4.9,0,0,0-.2,0-.2,5.1-6.5,10.6-12.8,16.8-18.4,1.7-1.5,3.4-2.9,5.2-4.1.1,0,.2,0,.3,0,5.9,2.3,12.3,4.9,17.8,6.4,1.5.4,4.4,1,8.7,1.9,4.1.8,8.3,1.4,12.6,1.7,4.7.3,9.4,0,13.8-.2,8.3-.4,16.4-1.7,24.4-3.9,1-.3,2-.6,3.2-1,5.7-2,10-3.7,14.5-5.2,0,0,0,0,.1,0,3.7,3.1,6.8,6.6,10,10.5,3.6,4.4,7.1,8.9,10.4,13.6,0,0,0,.1,0,.2-1.4,1.9-2.7,3.9-3.9,6-1,1.7-1.9,3.7-2.7,5.5-.7,1.6-1.1,2.5-1.2,2.5-1.4,3.4-1.8,6.7-1.2,10.4.3,1.7.6,3.4,1,5.1,1.7,7,3.9,13.5,6.5,20.3,2.7,6.9,7.9,14.6,8.6,22.7.3,3.3.3,6.7.2,10,0,2.6-.5,5.2-1.3,7.7-5.5,15.9-20.3,24.5-35.1,30.2-3.8,1.5-7.6,3-11.3,4.7-6.4,2.9-12.8,6-19.1,9.3-.7.4-2,1.1-3.8,2.3-2.9,1.8-5.6,3.9-8,6.2,0,0-.1,0-.2,0-3.8-3.3-8-6.3-12.1-9.1-7-4.7-14.9-7.9-23-10.3-3.2-.9-6.1-1.9-8.5-2.9-9-3.6-17.2-9.6-23.5-17-4.3-5.1-7.1-11.9-7.9-18.4,0-.5,0-1.4-.2-2.2,0-.3,0-.6,0-.9,0-3.3,0-6.7.4-10,.3-3.8,1.6-7.6,3.1-11.1,2.2-4.8,5-9.7,7.3-13.9ZM126,19.1s0,0,0,0l1,6.5s0,0,0,0c0,0,0,0,0,0l1.9-.3s0,0,0,0c0,0,0,0,0,0l-1.1-6.5s0,0,0,0l2.4-.4s0,0,0,0c0,0,0,0,0,0l-.3-1.4s0,0,0,0c0,0,0,0,0,0l-6.8,1.1s0,0,0,0l.2,1.4s0,0,0,0c0,0,0,0,0,0l2.4-.4ZM46.4,18.7c-1.6,2.1-1.6,5.9,1.3,6.9,1.2.4,2.6.5,4.1.3,0,0,0,0,0,0l.6-3.9c0,0,0-.1,0-.1l-1.8-.3c0,0,0,0-.1,0l-.4,2.6c0,0,0,.1-.1.1-1.1,0-1.9-.4-2.3-1.2-.6-1.1-.2-3.2,1-3.9,1-.6,2.5-.1,3.4.5,0,0,0,0,.1,0,0,0,0,0,0,0l.7-1.3c0,0,0,0,0-.1-1.9-1.3-4.8-1.6-6.3.4ZM120.9,23.3c.1.9,0,1.8-1.1,2-1.4.2-1.6-1-1.8-2-.2-1.5-.3-3-.5-4.4,0,0,0,0-.1,0,0,0,0,0,0,0l-1.8.2c0,0,0,0,0,.1.1,1.3.3,2.5.4,3.8.2,1.4.3,2.2.4,2.5.7,1.7,2.9,2,4.5,1.4,1.6-.6,2.2-1.8,2-3.5-.2-1.7-.4-3.4-.7-5.1,0,0,0,0-.1,0l-1.7.2c0,0,0,0,0,.1.2,1.6.4,3.2.6,4.8ZM59.2,23.9c2-.5,2.4-3.1.9-4.3-1.2-1-3.7-1.2-5.2-1.1,0,0,0,0,0,0l-1.1,7.8s0,0,0,0c0,0,0,0,0,0l1.8.2c0,0,.1,0,.1-.1l.3-2.5c0,0,0-.1.1-.1h.8c0,0,.1.1.1.2l1.5,2.8s0,0,.1,0l2,.2c0,0,0,0,0,0-.5-1.1-1-2.2-1.7-3.2,0,0,0-.1,0-.1ZM62.8,19.3c-.2,1.4-.3,2.7-.4,4.1-.1,1.6-.3,2.7.7,3.7,1.4,1.4,4.5,1.4,5.5-.5.2-.4.4-1,.4-1.8.2-1.7.3-3.3.4-5,0,0,0,0,0,0h-1.8c0-.1-.1-.1-.1,0,0,0,0,0,0,0-.1,1.6-.2,3.2-.4,4.8-.1,1.2-.5,2-1.8,1.7-1.1-.2-1-1.4-1-2.2.1-1.5.3-3,.4-4.5,0,0,0-.1,0-.1,0,0,0,0,0,0l-1.8-.2c0,0,0,0,0,0ZM106.9,20.8c-1.7,2.2-.9,6.2,2,7,3.2.8,5.9-1.2,5.6-4.6-.1-1.1-.5-2.1-1.2-2.8-1.7-1.8-4.9-1.6-6.4.3ZM105,20.3c-3.6-1.5-7.2.7-6.6,4.8.5,3.8,4.4,4.2,7.2,2.8,0,0,.1-.1,0-.2l-.6-1.3c0,0,0,0-.1,0-2.2,1.1-5,.6-4.7-2.5.3-2.4,2.3-2.6,4.3-1.9,0,0,0,0,0,0,0,0,0,0,0,0l.4-1.4c0,0,0-.1,0-.1ZM71.3,20.2l-.5,7.9c0,0,0,.1.1.1h1.8c0,.1,0,0,0,0v-2.6c.1,0,.2,0,.2,0,1.3,0,3.4.2,4.1-1.3.4-1,.4-1.9-.1-2.8-.9-1.6-4.1-1.4-5.6-1.3,0,0,0,0,0,0ZM94.4,25.5c1.1.4,1.4,1.6,0,1.7-.9.1-1.8,0-2.6-.4,0,0,0,0,0,0l-.5,1.4c0,0,0,.2,0,.2,1.7.7,5.4,1,6-1.4.6-2.4-1.6-3-3.3-3.6-.8-.3-1.2-1.3,0-1.5.8-.1,1.6,0,2.3.3,0,0,0,0,.1,0l.4-1.5c0,0,0,0,0-.1-1.8-.8-5.5-.8-5.5,2,0,1.9,1.7,2.3,3.2,2.8ZM87,25.5c1.1-7-9.2-6.9-8.4-.2.2,2,1.3,3.3,3.3,3.6,2.5.5,4.7-.8,5.1-3.4ZM36.9,35.2c-5,1.2-3.6-6.2.4-3.4,0,0,.1,0,.1,0l.5-1c0,0,0-.1,0-.1-2-1.4-4.8-1.1-5.6,1.4-1.1,3.4,1.8,5.2,4.8,4.4,0,0,0,0,0-.1l-.2-1.1c0,0,0,0-.1,0ZM144.5,34.8l.7,1.1c0,0,0,0,.1,0l1.3-.2c0,0,0,0,0,0-1.1-2-2.3-3.9-3.6-5.7,0,0,0,0-.1,0l-1.2.2c0,0-.1,0-.1.1-.6,2.2-1.1,4.3-1.5,6.5,0,0,0,.1,0,0l1.3-.2c0,0,.1,0,.1-.1l.2-1.3c0,0,0,0,.1-.1l2.4-.4c0,0,0,0,.1,0ZM40.4,32s0,0,0,0l-.7,5s0,0,0,0l1.4.2s0,0,0,0l.7-5s0,0,0,0l1.8.3s0,0,0,0l.2-1.1s0,0,0,0l-5.3-.8s0,0,0,0l-.2,1.1s0,0,0,0c0,0,0,0,0,0l1.8.3ZM134.7,33.6c1.2,1.1,2.3,2.3,3.2,3.5,0,0,0,0,.1,0l1.1-.2c0,0,0,0,0-.1l-.9-6.1c0,0,0,0-.1,0l-1.3.2c0,0,0,0,0,.1l.5,3.5c0,0,0,0,0,0-1-1.1-2.1-2.2-3.2-3.1,0,0,0,0-.2,0h-1.1c0,.1,0,.2,0,.2l.8,6.2c0,0,0,0,0,0l1.3-.2c0,0,.1,0,0-.1l-.5-3.8s0,0,0,0c0,0,0,0,0,0ZM45.9,35.2s0,0,0,0l2.4.3s0,0,0,0c0,0,0,0,0,0v-1.1c.1,0,.1,0,0,0,0,0,0,0,0,0l-2.4-.3s0,0,0,0c0,0,0,0,0,0v-1c.1,0,.2,0,.2,0l2.8.3s0,0,0,0v-1.1c.1,0,.1,0,0,0l-4.3-.5s0,0,0,0l-.8,6.2s0,0,0,0c0,0,0,0,0,0l4.5.6s0,0,0,0c0,0,0,0,0,0v-1.1c.1,0,0,0,0,0l-3-.4s0,0,0,0c0,0,0,0,0,0l.2-1.4ZM129.1,35.6s0,0,0,0l2.4-.3s0,0,0,0v-1.1c-.1,0-.2,0-.2,0l-2.4.3s0,0,0,0c0,0,0,0,0,0v-1c0,0,0,0,0,0l2.7-.3s0,0,0,0c0,0,0,0,0,0v-1.1c-.2,0-.2,0-.2,0l-4.2.5s0,0,0,0l.7,6.2s0,0,0,0l4.5-.6s0,0,0,0c0,0,0,0,0,0v-1.1c-.1,0-.2,0-.2,0,0,0,0,0,0,0l-3,.4s0,0,0,0l-.2-1.4ZM124.7,36.3c.2,1.8-1.9,2-2.1.5-.1-.7-.3-2.1-.4-4.1,0,0,0,0,0,0h-1.3c0,.1,0,.2,0,.2.1,1.3.2,2.6.4,3.9.2,1.7,1.1,2.5,2.7,2.4,1.2,0,2.3-.7,2.5-2,0-.2,0-.9-.1-2.1,0-.9-.2-1.8-.3-2.7,0,0,0,0,0,0h-1.3c0,.1,0,.2,0,.2.1,1.3.3,2.5.4,3.8ZM56.1,37.8s0,0,0,0c0,0,0,0,0,0l.5-5s0,0,0,0c0,0,0,0,0,0h-1.4c0-.1,0-.1,0,0,0,0,0,0,0,0l-.6,6.3s0,0,0,0l4.3.4s0,0,0,0c0,0,0,0,0,0v-1.2c.1,0,0,0,0,0,0,0,0,0,0,0l-2.7-.3ZM59.9,38.1c.3,1.3,1.7,1.9,3,1.8,1.4-.1,2.1-1,2.2-2.4.1-1.3.2-2.6.3-3.9,0,0,0-.1,0-.1h-1.3c0-.1,0,0,0,0-.1,1.3-.2,2.7-.3,4-.1,1.5-2.2,1.5-2.1-.3,0-1.3.2-2.5.3-3.8,0,0,0-.1,0-.1h-1.3c0-.1,0-.1,0,0,0,1-.2,1.9-.3,2.9,0,1.1-.1,1.8,0,2ZM118.8,35.9c1.1-.9.4-2.4-.8-2.6-1-.2-2.2-.1-3.5.3,0,0,0,0,0,.1l.5,6c0,0,0,0,.1.1,1.1.1,2.1,0,3.2-.2,1.8-.4,2.5-2.6.6-3.6,0,0,0,0,0-.1ZM68.3,33.7s0,0,0,0h-1.4c0,0,0,0,0,0h0s-.4,6.3-.4,6.3c0,0,0,0,0,0h1.4c0,0,0,0,0,0h0s.4-6.3.4-6.3ZM69.1,39.9c1.6.7,4.8,1.1,4.7-1.6,0-1.3-1.4-1.8-2.5-2.3-.6-.2-.7-.9,0-1.1.6,0,1.2,0,1.8.3,0,0,.1,0,.1,0l.4-1c0,0,0-.1,0-.1-1.4-.7-4.1-.9-4.3,1.3-.3,2.2,3.4,2.1,2.9,3.3-.3.8-2.2.2-2.7,0,0,0,0,0,0,0l-.4,1c0,0,0,.2,0,.2ZM109.6,38.8l.5,1.2s0,0,0,0h1.4c0-.1,0-.1,0-.2-.9-2.1-1.9-4.1-3-6.1,0,0,0,0-.1,0h-1.2c0,0,0,.1-.1.2-.8,2.1-1.5,4.2-2.1,6.3,0,0,0,0,0,0h1.3c0,0,.1,0,.1-.1l.4-1.3s0,0,0,0h2.4c0-.1.1,0,.1,0ZM100.6,38.4h.7s0,0,.1,0l1.4,1.9s0,0,.1,0h1.5c0,0,.1-.1,0-.2-.5-.8-1-1.5-1.6-2.2,0,0,0,0,0-.1.7-.3,1-.8,1.1-1.5.1-2.7-3.2-2.5-5-2.1,0,0,0,0,0,0l.2,6.1c0,0,0,0,0,0h1.4c0,0,0,0,0-.1v-1.9c0,0,0,0,0,0ZM78.9,38.5c1.4,0,3.1-.1,3.2-2,.2-2.5-2.9-2.5-4.7-2.2,0,0,0,0,0,0l-.2,6c0,0,0,0,0,0h1.3c0,0,0,0,0,0v-1.9c0,0,.1,0,.2,0ZM84.9,34.4s0,0,0,0h-1.4s0,0,0,0v6.3c0,0,0,0,0,0h1.4s0,0,0,0h0v-6.3ZM87.9,36.8s0,0,0,0h0v-1.1s0,0,0,0h2.8s0,0,0,0h0v-1.1s0,0,0,0h-4.3s0,0,0,0v6.3c0,0,0,0,0,0h4.6s0,0,0,0h0v-1.1s0,0,0,0h-3s0,0,0,0h0s0-1.4,0-1.4c0,0,0,0,0,0h2.4s0,0,0,0h0s0-1.1,0-1.1c0,0,0,0,0,0h-2.4ZM92.2,40.8c2.2.3,5.2.2,5.6-2.7.4-3.7-3-4-5.6-3.6,0,0-.2,0-.2.2v6c0,.1.1.2.2.2ZM51.2,37.9c0-.5-.3-.9-.8-1,0,0,0,0,0,0-.5,0-1,.2-1,.7h0c0,.5.3.9.8,1h0c.5,0,1-.2,1-.7h0ZM83.9,75.4c0,.1-.2.2-.3.3-4.2,4.3-7.8,9-10.8,14.2,0,0,0,0,0,.1,4.3,4.4,7.6,9.4,10.2,15.1,0,0,0,.2,0,.2l-.2,5.2c-2.9-5.5-7.4-9.9-12.6-13.3,0,0,0,0,0,0-1.2,2.4-1.9,4.9-2,7.6-.1,4.1.5,8.3,1.3,12.2,0,0,0,0,.1,0,0,0,0,0,0,0,3.6-1.2,8.1-1.5,10.3,2.3-6.5,4.1-13.6-2.7-16.9-7.6,0,0,0,0,0-.1,0,0,0,0,0,0,.9-.3,1.7-.8,2.4-1.3.1,0,.1-.2,0-.3,0,0,0,0,0,0-1.3-1.7-2.5-3.4-3.7-5.2-.9-1.3-1.4-2.4-1.8-3.3-.3-.7-.8-1.9-1.4-2.2-.9-.4-2,1.2-2.4,1.8-2.7,4.3-3.3,10.2-.2,14.5,0,0,.2.1.3,0,0,0,0,0,0,0l1.1-.9s0,0,0,0c.4.9.9,2,1.3,2.8,3,5.6,8.4,9.6,14,12.1,2.3,1,4.5,2,6.7,3.2-.7,2.6-1.7,5.1-2.8,7.6,0,0,0,0,0,0,0,0,0,0,0,0,1.6-2.1,3.1-4.3,4.4-6.6,1,.7,2,1.4,2.9,2.3-1,1.8-2.3,3.5-3.7,4.9,0,0,0,0,0,0,0,0,0,0,0,0,2.3-.4,4.3-1.2,6.4-2.1,1.5.8,2.6-.6,3.4-1.8,2.2-1.4,4.1-2.8,5.9-4.9,1.7-.7,3.4-1.4,5.1-2,6.7-2.6,12.4-6.4,15.7-13,.3-.6.7-1.5,1.2-2.7,0,0,0,0,0,0,0,0,0,0,0,0l1.1,1c0,0,.2,0,.2,0,0,0,0,0,0,0,.8-1.1,1.3-2.3,1.7-3.5,1.1-3.9,0-9.5-3-12.5-1.7-1.7-2.6,1.9-3.1,2.8-1.4,2.7-3.1,5.2-5,7.5,0,0,0,.2,0,.2.7.6,1.6,1.1,2.5,1.4,0,0,0,0,0,.1-2.8,6.5-8.7,9.4-15.6,9-.8-2.3-1.2-4.8-1.4-7.3-.5-9,5-13.5,13.4-14.1.1,0,.2,0,.3-.2,1.2-2.4,2.1-5,2.7-7.7,1.2-5.8,1.7-11.7,1.4-17.6,0,0,0,0,0,0,0,0,0,0,0,0-8.6,6.6-17.2,15.4-20.6,25.9v-11.4c2.4-5.5,5.5-10.6,9.3-15.3,1.1-.2,2.2-.3,3.2-.5,1.4-.2,2.2-1.1,2.3-2.5,0-1.1.2-2.3-.3-3.3l5.1-5.4c0,0,0,0,0,0-4.1.2-8.1,1.1-11.9,2.7-.2-.3-.4-.4-.7-.5-1.1-.3-2.6-.3-3.4.7,0,0,0,0-.1,0l-3.4-.5c0,0,0,0,0-.1v-1.1c0,0,1.4,1.3,1.4,1.3,0,0,0,0,.1,0,0,0,0,0,0,0l.4-2.6c0,0,0,0,0-.1l2.6-1.3c0,0,0,0,0,0l-1.7-.9c.7-1.3,1-2.7,1-4.1,0-4.5-4.1-8.4-8.7-8.1-8.1.6-10.7,10.8-3.8,15.3,0,0,0,0,0,0v1.7c0,0,0,0-.1.1l-4.1.6s-.1,0-.1,0c-.7-.9-1.7-1-2.8-.9-1,0-1.6.6-2,1.6,0,0,0,0-.1,0-.9.1-1.8.3-2.6.4-.9.1-1.5.3-1.8.5-1.4.9-1.2,2.7-1.2,4.2,0,1.8,1.2,2.4,2.9,2.6.9.1,1.8.2,2.7.4,0,0,0,0,.1,0,.6,1.6,1.6,1.6,3,1.6.8,0,1.3-.3,1.9-.8,0,0,.1,0,.2,0l3.8.5c0,0,.1,0,.1.1v.9ZM120.5,59.8s0,0,0,0l1.9,2.3s0,0,0,0c0,0,0,0,0,0l.7-2.6s0,0,0,0l2.8-1s0,0,0,0c0,0,0,0,0,0l-2.4-1.6s0,0,0,0l-.2-2.9s0,0,0,0c0,0,0,0,0,0l-2.1,1.6s0,0,0,0l-2.9-.8s0,0,0,0c0,0,0,0,0,0l1,2.5s0,0,0,0l-1.6,2.4s0,0,0,0c0,0,0,0,0,0h2.8ZM116.9,86.6s0,0,0,0c0,0,0,0,0,0h2.8s0,0,0,0l1.9,2.4s0,0,0,0c0,0,0,0,0,0l.8-2.6s0,0,0,0l2.8-.9s0,0,0,0c0,0,0,0,0,0l-2.3-1.7s0,0,0,0v-3c-.1,0-.1,0-.2,0,0,0,0,0,0,0l-2.2,1.6s0,0,0,0l-2.9-.9s0,0,0,0c0,0,0,0,0,0l.9,2.6s0,0,0,0l-1.7,2.4ZM55.2,146l-1.1-4s0,0,0,0l-1.4-.2c0,0-.1,0-.2.1l-1.6,6.3c0,0,0,.1,0,.2l1.4.2c0,0,0,0,0,0l.9-4.1c0,0,0,0,0,0l.9,3.6s0,0,0,0h1c0,.1.1.1.1,0l1.8-3c0-.1.1-.1,0,0l-.4,4.1s0,0,0,0l1.4.2c0,0,.1,0,.1-.1l.3-6.5c0,0,0-.1-.1-.1l-1.3-.2c0,0-.1,0-.1,0l-2.2,3.5c0,0,0,0,0,0ZM126.6,147.2l.7,1.2c0,0,0,0,.1,0l1.4-.2c0,0,0,0,0-.1-1.2-2.1-2.5-4.1-3.8-6,0,0,0,0-.2,0l-1.3.2c0,0,0,0-.1,0-.6,2.3-1.2,4.6-1.6,6.9,0,0,0,0,0,0l1.4-.2c0,0,.1,0,.1-.1l.3-1.3c0,0,0,0,0,0l2.5-.4c0,0,.1,0,.1,0ZM118,144.3s0,0,0,0l.7,5.3s0,0,0,0c0,0,0,0,0,0l1.5-.2s0,0,0,0c0,0,0,0,0,0l-.7-5.3s0,0,0,0h0s1.9-.3,1.9-.3c0,0,0,0,0,0l-.2-1.1s0,0,0,0l-5.6.7s0,0,0,0v1.1c.1,0,.2,0,.2,0,0,0,0,0,0,0l1.9-.2ZM64.4,148.7l.4,1.3c0,0,0,.1.1.1l1.5.2c0,0,0,0,0,0-.6-2.3-1.3-4.6-2-6.8,0,0,0,0-.1,0h-1.3c0-.1-.1-.1-.1,0-1.2,2-2.4,4.1-3.4,6.2,0,0,0,.1,0,.1l1.4.2c0,0,.1,0,.1,0l.6-1.2s0,0,.1,0l2.6.3s0,0,0,0ZM112.2,149l2.5-.3c0,0,.1,0,.1,0l.6,1.2c0,0,0,0,.1,0l1.4-.2c0,0,0,0,0-.1-1.1-2.1-2.2-4.2-3.5-6.2,0,0,0,0-.2,0h-1.3c0,.1,0,.2-.1.2-.8,2.2-1.4,4.5-2,6.8,0,0,0,0,0,0h1.5c0-.1.1-.2.1-.2l.3-1.3c0,0,0,0,.1-.1ZM69.2,148.4h.6c0,0,.1,0,.2.2l1.2,2.2s0,0,.1,0h1.7c0,.1,0,.1,0,0,0,0,0,0,0,0-.4-.9-.9-1.7-1.5-2.5,0,0,0,0,0-.1.9-.3,1.4-1,1.4-2,0-2.4-3.2-2.5-5-2.3,0,0,0,0-.1.1l-.6,6.4c0,0,0,0,0,0h1.5c0,.1,0,0,0,0l.2-2c0,0,0,0,0,0ZM106.4,149.5s0,0,0,0c0,0,0,0,0,0l-.4-5.2s0,0,0,0h-1.5c0,0,0,0,0,.1,0,0,0,0,0,0l.4,6.6s0,0,0,0l4.6-.4s0,0,0,0c0,0,0,0,0,0v-1.3c-.1,0-.2,0-.2,0l-2.9.2ZM76.5,151.2c2.2.6,5.7.6,6.2-2.4.6-4-2.8-4.4-5.8-4.1,0,0,0,0,0,0l-.4,6.4c0,0,0,0,0,0ZM99.9,149c1,0,2.5-.2,3-1.1.5-.9.3-2.3-.6-2.9-1-.7-3.1-.5-4.2-.2,0,0,0,0,0,0l.2,6.3c0,.1,0,.2.2.2h1.4c0,0,.1,0,.1-.2v-2.1c-.1,0,0,0,0,0,0,0,0,0,0,0ZM85.6,150.2s0,0,0,0h0s0-1.5,0-1.5c0,0,0,0,0,0h2.5s0,0,0,0v-1.2c0,0,0,0,0,0,0,0,0,0,0,0h-2.6s0,0,0,0h0v-1.1s0,0,0,0c0,0,0,0,0,0h2.9c0,0,0,0,0,0h0s0-1.2,0-1.2c0,0,0,0,0,0h-4.5c0,0,0,0,0,0h0s-.1,6.6-.1,6.6c0,0,0,0,0,0h4.9c0,0,0,0,0,0h0v-1.1s0,0,0,0h-3.2ZM91.8,150.1s0,0,0,0v-5.2c0,0,0,0-.1,0h-1.5s0,0,0,0v6.6s0,0,0,0h4.6c0,0,0,0,0-.1v-1.3s0,0,0,0h-2.9Z"/>
  <path class="st13" d="M126,19.1l-2.4.4s0,0,0,0c0,0,0,0,0,0l-.2-1.4s0,0,0,0l6.8-1.1s0,0,0,0c0,0,0,0,0,0l.3,1.4s0,0,0,0c0,0,0,0,0,0l-2.4.4s0,0,0,0l1.1,6.5s0,0,0,0c0,0,0,0,0,0l-1.9.3s0,0,0,0c0,0,0,0,0,0l-1-6.5s0,0,0,0Z"/>
  <path class="st13" d="M46.4,18.7c1.5-2,4.4-1.7,6.3-.4,0,0,0,0,0,.1l-.7,1.3s0,0-.1,0c0,0,0,0,0,0-.9-.7-2.4-1.1-3.4-.5-1.1.7-1.5,2.8-1,3.9.4.8,1.2,1.2,2.3,1.2,0,0,.1,0,.1-.1l.4-2.6c0,0,0,0,.1,0l1.8.3c0,0,0,0,0,.1l-.6,3.9c0,0,0,0,0,0-1.5.2-2.8.1-4.1-.3-2.9-1.1-2.9-4.9-1.3-6.9Z"/>
  <path class="st13" d="M119.8,25.3c1.1-.2,1.2-1,1.1-2-.2-1.6-.4-3.2-.6-4.8,0,0,0-.1,0-.1l1.7-.2c0,0,0,0,.1,0,.3,1.7.5,3.4.7,5.1.2,1.7-.4,2.8-2,3.5-1.6.6-3.8.3-4.5-1.4-.1-.3-.3-1.2-.4-2.5-.2-1.3-.3-2.5-.4-3.8,0,0,0,0,0-.1l1.8-.2c0,0,.1,0,.1,0,0,0,0,0,0,0,.2,1.5.3,2.9.5,4.4.1,1,.4,2.3,1.8,2Z"/>
  <path class="st13" d="M59.2,23.9c0,0-.1,0,0,.1.7,1,1.2,2.1,1.7,3.2,0,0,0,0,0,0l-2-.2s0,0-.1,0l-1.5-2.8c0,0,0,0-.1-.1h-.8c0,0-.1,0-.1,0l-.3,2.5c0,0,0,.1-.1.1l-1.8-.2s0,0,0,0c0,0,0,0,0,0l1.1-7.8c0,0,0,0,0,0,1.5,0,4,0,5.2,1.1,1.4,1.2,1,3.9-.9,4.3ZM56.6,20.3l-.2,1.9s0,0,0,0c0,0,0,0,0,0h1c.8.2,1.5-.1,1.6-.7,0,0,0,0,0,0v-.2c0-.5-.5-1-1.3-1.1h-1c0-.1,0,0,0,0,0,0,0,0,0,0Z"/>
  <path class="st13" d="M62.8,19.3c0,0,0,0,0,0l1.8.2c0,0,.1,0,0,.1,0,0,0,0,0,0-.2,1.5-.3,3-.4,4.5,0,.9-.2,2,1,2.2,1.3.2,1.7-.6,1.8-1.7.2-1.6.3-3.2.4-4.8,0,0,0,0,.1,0,0,0,0,0,0,0h1.8c0,.1,0,.2,0,.2,0,1.7-.2,3.3-.4,5,0,.8-.2,1.4-.4,1.8-1,1.8-4.1,1.8-5.5.5-1-1-.9-2.1-.7-3.7.1-1.3.3-2.7.4-4.1Z"/>
  <path class="st13" d="M106.9,20.8c1.5-1.9,4.8-2.1,6.4-.3.7.7,1,1.6,1.2,2.8.3,3.4-2.4,5.4-5.6,4.6-2.9-.8-3.7-4.8-2-7ZM110.7,21c-3.6-.7-3.6,5.3-.5,5.3,3,0,2.8-4.8.5-5.3Z"/>
  <path class="st13" d="M98.4,25.1c-.6-4.1,3-6.3,6.6-4.8,0,0,0,0,0,.1l-.4,1.4s0,0,0,0c0,0,0,0,0,0-1.9-.7-4-.5-4.3,1.9-.3,3.1,2.5,3.6,4.7,2.5,0,0,0,0,.1,0l.6,1.3c0,0,0,.2,0,.2-2.9,1.4-6.7,1-7.2-2.8Z"/>
  <path class="st13" d="M71.3,20.2s0,0,0,0c1.5-.1,4.7-.3,5.6,1.3.5.9.5,1.8.1,2.8-.7,1.5-2.8,1.4-4.1,1.3,0,0,0,0,0,0v2.6c-.1,0-.2,0-.2,0h-1.8c0-.1-.1-.2-.1-.2l.5-7.9ZM73.1,22v1.8c0,.1,0,.2.1.2,0,0,0,0,0,0h.8c.7,0,1.3-.3,1.3-.8,0,0,0,0,0,0v-.4c0-.5-.5-.9-1.2-1,0,0,0,0,0,0h-.8c-.1,0-.2,0-.2.2,0,0,0,0,0,0Z"/>
  <path class="st13" d="M94.3,27.2c1.4-.2,1.2-1.3,0-1.7-1.4-.5-3.2-.9-3.2-2.8,0-2.8,3.7-2.8,5.5-2,0,0,0,0,0,.1l-.4,1.5c0,0,0,0-.1,0-.8-.4-1.5-.5-2.3-.3-1.1.2-.7,1.2,0,1.5,1.7.6,3.9,1.2,3.3,3.6-.5,2.4-4.3,2.1-6,1.4,0,0-.1,0,0-.2l.5-1.4c0,0,0,0,0,0,.8.4,1.7.5,2.6.4Z"/>
  <path class="st13" d="M78.6,25.2c-.8-6.7,9.4-6.7,8.4.2-.4,2.6-2.6,3.9-5.1,3.4-2-.4-3.1-1.6-3.3-3.6ZM83.4,22c-3.4-.9-3.9,5.1-.7,5.2,2.9.1,3.2-4.6.7-5.2Z"/>
  <path class="st15" d="M56.6,20.3s0,0,0,0c0,0,0,0,0,0h1c.8.2,1.4.7,1.3,1.2v.2c0,.5-.8.9-1.6.8,0,0,0,0,0,0h-1c0-.1,0-.1,0-.2h0s.2-1.9.2-1.9Z"/>
  <path class="st15" d="M110.2,26.3c-3.1,0-3.1-6,.5-5.3,2.4.5,2.5,5.2-.5,5.3Z"/>
  <path class="st15" d="M73.1,22c0-.1.1-.2.2-.2,0,0,0,0,0,0h.8c.7,0,1.3.5,1.3,1,0,0,0,0,0,0v.4c0,.5-.6.9-1.3.9,0,0,0,0,0,0h-.8c-.1,0-.2-.1-.2-.2,0,0,0,0,0,0v-1.8Z"/>
  <path class="st15" d="M82.7,27.2c-3.2-.1-2.6-6.1.7-5.2,2.5.7,2.2,5.3-.7,5.2Z"/>
  <path class="st13" d="M37.3,31.8c-4-2.7-5.4,4.7-.4,3.4,0,0,.1,0,.1,0l.2,1.1c0,0,0,0,0,.1-3,.8-5.9-.9-4.8-4.4.8-2.5,3.6-2.8,5.6-1.4,0,0,0,0,0,.1l-.5,1c0,0,0,0-.1,0Z"/>
  <path class="st13" d="M144.4,34.8l-2.4.4c0,0,0,0-.1.1l-.2,1.3c0,0,0,.1-.1.1l-1.3.2c0,0-.1,0,0,0,.4-2.2.9-4.4,1.5-6.5,0,0,0,0,.1-.1l1.2-.2c0,0,0,0,.1,0,1.3,1.9,2.5,3.8,3.6,5.7,0,0,0,0,0,0l-1.3.2c0,0-.1,0-.1,0l-.7-1.1s0,0-.1,0ZM142.2,33.8s0,0,0,0c0,0,0,0,0,0l1.4-.2s0,0,0,0c0,0,0,0,0,0l-1.1-1.8s0,0,0,0c0,0,0,0,0,0l-.4,2.1Z"/>
  <path class="st13" d="M40.4,32l-1.8-.3s0,0,0,0c0,0,0,0,0,0l.2-1.1s0,0,0,0l5.3.8s0,0,0,0l-.2,1.1s0,0,0,0l-1.8-.3s0,0,0,0l-.7,5s0,0,0,0l-1.4-.2s0,0,0,0l.7-5s0,0,0,0Z"/>
  <path class="st13" d="M134.6,33.6l.5,3.8c0,0,0,.1,0,.1l-1.3.2c0,0,0,0,0,0l-.8-6.2c0,0,0,0,0-.1h1.1c0-.1.1-.1.2,0,1.1,1,2.2,2,3.2,3.1,0,0,0,0,0,0l-.5-3.5c0,0,0-.1,0-.1l1.3-.2c0,0,.1,0,.1,0l.9,6.1c0,0,0,.1,0,.1l-1.1.2c0,0,0,0-.1,0-1-1.3-2.1-2.4-3.2-3.5,0,0,0,0,0,0,0,0,0,0,0,0Z"/>
  <path class="st13" d="M45.9,35.2l-.2,1.4s0,0,0,0c0,0,0,0,0,0l3,.4s0,0,0,0v1.1c-.1,0-.1,0-.2,0,0,0,0,0,0,0l-4.5-.6s0,0,0,0c0,0,0,0,0,0l.8-6.2s0,0,0,0l4.3.5s0,0,0,0v1.1c-.1,0-.2,0-.2,0l-2.8-.3s0,0,0,0v1c-.1,0-.1,0,0,0,0,0,0,0,0,0l2.4.3s0,0,0,0c0,0,0,0,0,0v1.1c-.1,0-.2,0-.2,0,0,0,0,0,0,0l-2.4-.3s0,0,0,0Z"/>
  <path class="st13" d="M129.1,35.6l.2,1.4s0,0,0,0l3-.4s0,0,0,0c0,0,0,0,0,0v1.1c.1,0,.1,0,0,0,0,0,0,0,0,0l-4.5.6s0,0,0,0l-.7-6.2s0,0,0,0l4.2-.5s0,0,0,0v1.1c.2,0,.1,0,0,0,0,0,0,0,0,0l-2.7.3s0,0,0,0v1c0,0,.1,0,.2,0,0,0,0,0,0,0l2.4-.3s0,0,0,0v1.1c.1,0,0,0,0,0l-2.4.3s0,0,0,0Z"/>
  <path class="st15" d="M142.2,33.8l.4-2.1s0,0,0,0c0,0,0,0,0,0l1.1,1.8s0,0,0,0c0,0,0,0,0,0l-1.4.2s0,0,0,0c0,0,0,0,0,0Z"/>
  <path class="st13" d="M122.6,36.9c.2,1.5,2.3,1.2,2.1-.5-.1-1.3-.3-2.5-.4-3.8,0,0,0,0,0,0h1.3c0-.1,0-.1,0,0,.1.9.2,1.8.3,2.7.1,1.1.2,1.8.1,2.1-.2,1.2-1.2,1.9-2.5,2-1.6.1-2.6-.7-2.7-2.4-.1-1.3-.3-2.6-.4-3.9,0,0,0,0,0-.1h1.3c0-.1,0-.1,0,0,.2,2,.3,3.4.4,4.1Z"/>
  <path class="st13" d="M56.1,37.8l2.7.3s0,0,0,0c0,0,0,0,0,0v1.2c-.1,0-.1,0-.2,0,0,0,0,0,0,0l-4.3-.4s0,0,0,0l.6-6.3s0,0,0,0c0,0,0,0,0,0h1.4c0,.1,0,.2,0,.2,0,0,0,0,0,0l-.5,5s0,0,0,0c0,0,0,0,0,0Z"/>
  <path class="st13" d="M62.9,39.9c-1.3.1-2.7-.4-3-1.8,0-.3,0-.9,0-2,0-1,.2-1.9.3-2.9,0,0,0,0,0,0h1.3c0,.1,0,.2,0,.2-.1,1.3-.2,2.6-.3,3.8-.1,1.9,2,1.8,2.1.3.1-1.3.2-2.7.3-4,0,0,0,0,0,0h1.3c0,.1,0,.2,0,.2,0,1.3-.2,2.6-.3,3.9-.1,1.4-.8,2.2-2.2,2.4Z"/>
  <path class="st13" d="M118.8,36c1.9.9,1.2,3.1-.6,3.6-1,.2-2.1.3-3.2.2,0,0,0,0-.1-.1l-.5-6c0,0,0,0,0-.1,1.3-.4,2.4-.5,3.5-.3,1.2.2,2,1.8.8,2.6,0,0,0,0,0,.1ZM116,34.6v.9c0,0,0,.2.2.2h.6c.5,0,.9-.3.9-.6,0,0,0,0,0,0h0c0-.4-.4-.7-.9-.7h-.6c-.1,0-.2,0-.2.2s0,0,0,0ZM116.2,37.1v1.4c.1,0,.2.1.3.1h.7c.7-.1,1.2-.5,1.1-.9v-.2c0-.4-.6-.7-1.3-.6,0,0,0,0,0,0h-.7c0,0-.1.1-.1.2,0,0,0,0,0,0Z"/>
  <rect class="st13" x="64.1" y="36.1" width="6.4" height="1.5" rx=".3" ry=".3" transform="translate(26.2 101.6) rotate(-86.3)"/>
  <path class="st13" d="M69.1,39.9c0,0-.1-.1,0-.2l.4-1s0,0,0,0c.5.3,2.4.9,2.7,0,.5-1.2-3.1-1.1-2.9-3.3.3-2.2,2.9-2,4.3-1.3,0,0,0,0,0,.1l-.4,1c0,0,0,0-.1,0-.6-.3-1.2-.4-1.8-.3-.7.1-.6.8,0,1.1,1.1.5,2.4,1,2.5,2.3.1,2.7-3.1,2.3-4.7,1.6Z"/>
  <path class="st13" d="M109.5,38.8h-2.4c0,.1,0,.1,0,.2l-.4,1.3c0,0,0,0-.1.1h-1.3c0,0,0,0,0,0,.6-2.1,1.3-4.3,2.1-6.3,0,0,0,0,.1,0h1.2c0,0,0,0,.1,0,1.1,2,2.1,4,3,6.1,0,0,0,0,0,0h-1.4c0,.1,0,0,0,0l-.5-1.2c0,0,0,0-.1,0ZM107.4,37.5s0,0,0,0c0,0,0,0,0,0h1.5c0,0,0-.1,0-.2,0,0,0,0,0,0l-.9-2s0,0,0,0c0,0,0,0,0,0l-.6,2.1Z"/>
  <path class="st13" d="M100.5,38.5v1.9c0,0,0,0,0,0h-1.4c0,0,0,0,0,0l-.2-6.1c0,0,0,0,0,0,1.8-.4,5.1-.6,5,2.1,0,.7-.4,1.2-1.1,1.5,0,0,0,0,0,.1.6.7,1.1,1.4,1.6,2.2,0,0,0,.1,0,.1h-1.5c0,0-.1,0-.1,0l-1.4-1.9s0,0-.1,0h-.7c0,0,0,0,0,.1ZM100.5,35.6v1.4c0,0,0,.1.1,0h.6c.7,0,1.2-.4,1.2-.7,0,0,0,0,0,0v-.2c0-.4-.6-.7-1.3-.7h-.6c0,0-.1,0,0,.1Z"/>
  <path class="st13" d="M78.8,38.6v1.9c0,0-.1,0-.2,0h-1.3c0,0,0,0,0-.2l.2-6s0,0,0,0c1.8-.3,4.8-.3,4.7,2.2-.1,1.8-1.8,2-3.2,2,0,0,0,0-.1,0ZM78.8,35.7v1.4c0,0,0,.1.1.1h.6c.6,0,1-.3,1-.8,0,0,0,0,0,0h0c0-.5-.4-.9-1-.9h-.6c0,0-.1,0-.1.1h0Z"/>
  <rect class="st13" x="80.9" y="36.7" width="6.4" height="1.5" rx=".4" ry=".4" transform="translate(45.4 121.1) rotate(-89.2)"/>
  <path class="st13" d="M87.9,36.8h2.4s0,0,0,0h0s0,1.1,0,1.1c0,0,0,0,0,0h-2.4s0,0,0,0h0s0,1.4,0,1.4c0,0,0,0,0,0h3s0,0,0,0h0v1.1s0,0,0,0h-4.6s0,0,0,0h0v-6.3c0,0,0,0,.1,0h4.3s0,0,0,0h0v1.1s0,0,0,0h-2.8s0,0,0,0h0v1.1s0,0,0,0h0Z"/>
  <path class="st13" d="M92.2,40.8c-.1,0-.2,0-.2-.2v-6c0,0,0-.2.1-.2,2.6-.4,6,0,5.6,3.6-.3,3-3.3,3-5.6,2.7ZM93.6,35.7v3.8s0,0,0,0h.7c1,0,1.9-.8,1.9-1.8v-.4c0-1-.8-1.8-1.9-1.8h-.7s0,0,0,0Z"/>
  <path class="st15" d="M116,34.6c0-.1,0-.2.2-.2,0,0,0,0,0,0h.6c.5,0,.9.3.9.6h0c0,.4-.4.7-.9.7h-.6c0,0-.2,0-.2-.2v-.9Z"/>
  <path class="st15" d="M107.4,37.5l.6-2.1s0,0,0,0c0,0,0,0,0,0l.9,2s0,0,0,0c0,0,0,0,0,0h-1.5c0,0,0,0,0,0,0,0,0,0,0,0Z"/>
  <path class="st15" d="M100.5,35.6c0,0,0-.1,0-.1h.6c.7,0,1.2.3,1.2.7v.2c0,.4-.5.7-1.2.7,0,0,0,0,0,0h-.6c0,0-.1,0-.1,0v-1.4Z"/>
  <path class="st15" d="M78.8,35.7c0,0,0-.1.1-.1h.6c.6,0,1,.4,1,.8h0c0,.5-.5.9-1,.9,0,0,0,0,0,0h-.6c0,0-.1,0-.1-.1h0s0-1.4,0-1.4Z"/>
  <path class="st15" d="M93.6,35.7s0,0,0,0h.7c1,0,1.9.8,1.9,1.8h0v.4c0,1-.8,1.8-1.9,1.8h-.7s0,0,0,0v-3.8Z"/>
  <ellipse class="st13" cx="50.3" cy="37.8" rx=".8" ry=".9" transform="translate(5.1 81.5) rotate(-80.9)"/>
  <path class="st15" d="M116.2,37.1c0,0,0-.1.1-.1,0,0,0,0,0,0h.7c.7-.1,1.2.1,1.3.5,0,0,0,0,0,0v.2c0,.4-.5.8-1.1.8h-.7c0,0-.1,0-.1,0v-1.4Z"/>
  <path class="st0" d="M95.8,58.8l-.8-.4c0,0,0,0,0-.1l-.3-1.6.5-.9s0,0,.1,0c0,0,0,0,0,0l-.2,1.6s0,0,0,0c0,0,0,0,0,0,.5-1.3.6-2.9.3-4.2-.8-3.5-4-5.8-7.6-5.5-.6,0-1.2.3-1.6.7,0,0,0,0,0,0,0,0,0,0,0,0,.8-.2,1.6-.3,2.3-.4.1,0,.3.1.3.2,0,0,0,0,0,0v1.4c0,.2-.1.3-.3.3,0,0,0,0,0,0-.8,0-1.6.2-2.4.5,0,0,0,0,0,.1,0,0,0,0,0,0,1.2-.4,2.2-.2,3.4.2,1.8.5,2.8,1.9,3,3.8,0,0,0,0,0,.1.1,0,.2.2.2.4,0,.5,0,1,0,1.6l-.5.5s0,0-.2,0l-1.2-.2c-.6-.4-1.3-.5-2-.5-.8,0-2.1.1-2.7.6,0,0,0,0,0,0,1-.2,1.9-.3,2.9-.2l.2.4c-.7,0-1.3.2-1.9.4-.3.1-.3.2,0,.1h.7c0,0,.1,0,.2,0,0,.1.1.3.1.5,0,1.6,0,3.2,0,4.7,0,.1.1.3.2.3,0,0,0,0,0,0,.9,0,1.8,0,2.6.2.1,0,.2,0,.2-.2,0,0,0,0,0,0v-1.7c.4.1.8.4,1.1.8v1.1c0,0,0,.1,0,.1l3.4.5s0,0,.1,0c.8-1,2.3-.9,3.4-.7.3,0,.5.2.7.5l-1.4.5c-.8,0-1.8-.1-2,.7,0,0,0,0,0,0,.4-.5.8-.7,1.4-.4l-2.6,1.3v-.7c0,0,0-.1-.1-.1-.2,0-.6-.1-1-.2-2-.3-4.1-.7-6.1-.7-2.4,0-5.1.5-7.3.8-.3,0-.8,0-1.2.2,0,0-.1.2,0,.2,0,0,0,.1.2.1.2,0,.4,0,.7,0,1.2-.3,2.3-.5,3.5-.7.6-.1,3.6-.4,4.2.2,0,0,0,0,0,0-.8,0-1.7,0-2.5.1,0,0,0,0,0,0,0,0,0,0,0,0h2c.2,0,.4.2.4.4v5.3c.1,0-4.7,4.2-4.7,4.2v-.9c0,0,0-.1,0-.1l-3.8-.5c0,0-.1,0-.2,0-.5.6-1,.9-1.9.8-1.4,0-2.5,0-3-1.6,0,0,0,0-.1,0-.9-.1-1.8-.2-2.7-.4-1.7-.2-2.8-.8-2.9-2.6,0-1.5-.3-3.3,1.2-4.2.3-.2.9-.4,1.8-.5.9-.1,1.8-.3,2.6-.4,0,0,0,0,.1,0,.4-1,1.1-1.5,2-1.6,1.1,0,2.1,0,2.8.9,0,0,0,0,.1,0l4.1-.6c0,0,0,0,0-.1v-1.7s0,0,0,0c-6.8-4.5-4.3-14.6,3.8-15.3,4.6-.4,8.7,3.5,8.7,8.1,0,1.4-.3,2.8-1,4.1ZM86.7,56c1.4-.4,3.1-.5,4.5,0,0,0,.1,0,.1,0,0,0,0,0,0,0,.8-2.2-.8-4.4-3.2-4.1-2.1.3-3.1,2.4-2.2,4.3,0,0,0,0,.1,0,.2,0,.5-.2.6-.3ZM84.1,59.8c0,0,0,.1-.1.1,0,0,0,0-.1,0-.2-.4-.2-.8-.1-1.2,0,0,0,0,0,0,0,0,0,0,0,0l-.2,1c0,0,0,.1,0,.2l.8.8s0,0,.1,0c0,0,0,0,0,0,0-1.1-.1-2.1.4-3.1,0,0,0,0,0,0s0,0,0,0c-.7.8-.6,1.5-.7,2.5ZM76.7,64.9c.5,0,.9-.1,1.3.1,0,0,0,.1,0,.2,0,0,0,0-.1,0l-.9.2c0,0-.1,0-.1.1-.1,2,0,3.9.2,5.9,0,.4.2.8.3,1.1.4.6,1.4-.4,1.6-.7.1-.2.2-.6.2-1.1,0-1.6,0-3.2,0-4.7,0-1.6-1.3-1.5-2.4-1.3,0,0-.1,0-.2.1,0,0,0,0,0,0ZM71.1,68c0,0,.2,0,.2,0,0,0,0,0,0,.1,0,.6.2,1,.9,1,.8,0,1.6,0,2.3-.3,0,0,.2,0,.2.1,0,0,0,0,0,0,0,.9-.1,1.8.2,2.7,0,0,0,0,0,0,0,0,0,0,0,0v-5.2c0,0,0-.1-.1-.1,0,0,0,0,0,0-1.1.1-2.2.3-3.3.5-1.4.2-1.1,2-.7,2.9,0,0,0,0,0,0,0,0,0,0,0,0,0-.4,0-.7,0-1.1,0-.2,0-.3.1-.4Z"/>
  <path class="st1" d="M94.6,56.7l-.2-1.2c0,0,0,0-.1,0h-.2c0,0,0,0,0,0,0,0,0-.1-.1-.2,0,0-.1,0-.1,0-.2.3-.3.6-.4.9l-.6.6c0-.5,0-1.1,0-1.6,0-.2,0-.4-.2-.4,0,0,0,0,0-.1-.2-1.9-1.3-3.2-3-3.8-1.2-.4-2.2-.5-3.4-.2,0,0,0,0,0,0,0,0,0-.1,0-.1.8-.4,1.6-.5,2.4-.5.2,0,.3-.1.3-.3,0,0,0,0,0,0v-1.4c0-.1-.1-.3-.3-.3,0,0,0,0,0,0-.8,0-1.5.2-2.3.4,0,0,0,0,0,0,0,0,0,0,0,0,.5-.4,1-.6,1.6-.7,3.6-.3,6.8,2,7.6,5.5.3,1.3.2,2.9-.3,4.2,0,0,0,0,0,0,0,0,0,0,0,0l.2-1.6s0,0,0,0c0,0,0,0,0,0l-.5.9Z"/>
  <path class="st1" d="M91.2,56.1c-1.4-.6-3.1-.5-4.5,0-.2,0-.4.2-.6.3,0,0-.1,0-.1,0-.9-1.9.2-4,2.2-4.3,2.4-.3,4,1.9,3.2,4.1,0,0,0,0-.1,0,0,0,0,0,0,0Z"/>
  <path class="st16" d="M120.5,59.8h-2.8s0,0,0,0c0,0,0,0,0,0l1.6-2.4s0,0,0,0l-1-2.5s0,0,0,0c0,0,0,0,0,0l2.9.8s0,0,0,0l2.1-1.6s0,0,0,0c0,0,0,0,0,0l.2,2.9s0,0,0,0l2.4,1.6s0,0,0,0c0,0,0,0,0,0l-2.8,1s0,0,0,0l-.7,2.6s0,0,0,0c0,0,0,0,0,0l-1.9-2.3s0,0,0,0Z"/>
  <path class="st0" d="M94.1,55.6l-.7.7c0-.3.2-.6.4-.9,0,0,.1,0,.2,0,0,0,0,0,0,.1,0,0,0,.1,0,.2Z"/>
  <path class="st16" d="M94.6,56.7l.3,1.6c0,0,0,.1,0,.1l.8.4,1.7.9c0,0,0,0,0,0l-2.6,1.3c0,0,0,0,0,.1l-.4,2.6s0,0,0,0c0,0,0,0,0,0l-1.4-1.3c-.3-.4-.7-.7-1-.8l-2.6.4s0,0,0,0c0,0,0,0,0,0l1.3-2.6s0,0,0-.1l-1-1.7-.2-.4c0,0,0-.1,0-.2,0,0,0,0,0,0,0,0,0,0,0,0l1.7.2,1.2.2c0,0,.1,0,.2,0l.5-.5.6-.6.7-.7h.2c0-.2.1-.2.1,0l.2,1.2Z"/>
  <path class="st1" d="M91,57.2l-1.7-.2s0,0,0,0c0,0,0,0,0,0,0,0,0,.1,0,.2-1,0-2,0-2.9.2,0,0-.1,0,0,0,.6-.5,1.9-.6,2.7-.6.7,0,1.4.1,2,.5Z"/>
  <path class="st1" d="M84.1,59.8c0-.9,0-1.7.7-2.5,0,0,0,0,0,0s0,0,0,0h0c-.5,1-.4,2-.4,3.1,0,0,0,0,0,0,0,0,0,0,0,0l-.8-.8s0-.1,0-.2l.2-1s0,0,0,0c0,0,0,0,0,0,0,.4,0,.8.1,1.2,0,0,0,0,.2,0,0,0,0,0,0-.1Z"/>
  <path class="st1" d="M89.5,57.6l1,1.7s0,0,0,.1l-1.3,2.6s0,0,0,0c0,0,0,0,0,0l2.6-.4v1.7c0,.1-.1.2-.3.2,0,0,0,0,0,0-.9-.2-1.8-.2-2.6-.2-.1,0-.3-.1-.3-.2,0,0,0,0,0,0,0-1.5,0-3.1,0-4.7,0-.2,0-.4-.1-.5,0,0,0,0-.2,0h-.7c-.3.1-.3,0,0,0,.6-.2,1.2-.4,1.9-.4Z"/>
  <path class="st14" d="M107.4,66.9l-.8.9-2.2,2.6-.7.9c0,0-.1.1-.2.2l-1.3,1.7c-3.8,4.8-6.9,9.9-9.3,15.3l-1.1,2.8c-3.8,10-3.8,20,0,29.9.8,2.1,1.8,4.2,2.9,6.3l.6,1.2.3.5,1.3,2.3c0,0,0,.1,0,.2l-.6,1c-1.8,2.1-3.7,3.5-5.9,4.9l-3.4,1.8c-2.1.9-4.2,1.7-6.4,2.1,0,0,0,0,0,0,0,0,0,0,0,0,1.5-1.4,2.7-3,3.7-4.9,5.3-9.5,3.2-21.4-.9-30.8,0,0,0,0-.1-.2,0,0,0-.1,0-.2-2.5-5.7-5.9-10.7-10.2-15.1,0,0,0,0,0-.1,3-5.2,6.6-9.9,10.8-14.2,0,0,.2-.2.3-.3l4.8-4.2c2.3-1.8,4.8-3.5,7.3-4.9l2.6-1.3.6-.3,1.4-.5c3.8-1.6,7.8-2.5,11.9-2.7,0,0,0,0,0,0l-5.1,5.4Z"/>
  <path class="st1" d="M96.1,66.3c-2.5,1.4-5,3.1-7.3,4.9v-5.3c-.1-.2-.3-.4-.5-.4h-2s0,0,0,0c0,0,0,0,0,0,.8-.2,1.6,0,2.5-.1,0,0,0,0,0,0-.6-.5-3.6-.3-4.2-.2-1.2.2-2.3.5-3.5.7-.2,0-.5,0-.7,0-.1,0-.2,0-.2-.2,0,0,0-.1.1-.2.4-.2.9-.2,1.2-.2,2.1-.3,4.8-.8,7.3-.8,1.9,0,4.1.4,6.1.7.5,0,.8.1,1,.2,0,0,0,0,0,.1v.7Z"/>
  <path class="st1" d="M99.3,64.7l-.6.3c-.6-.3-1-.1-1.4.4,0,0,0,0,0,0,.3-.8,1.3-.7,2-.7Z"/>
  <path class="st1" d="M77.9,65c-.4-.2-.8-.2-1.3-.1,0,0,0,0,0,0,0,0,0-.1.2-.1,1.2-.1,2.4-.3,2.4,1.3,0,1.6,0,3.2,0,4.7,0,.5,0,.9-.2,1.1-.2.3-1.3,1.3-1.6.7-.2-.3-.3-.7-.3-1.1-.2-2-.3-3.9-.2-5.9,0,0,0-.1.1-.1l.9-.2c0,0,.1,0,.1-.2,0,0,0,0,0-.1Z"/>
  <path class="st1" d="M71.1,68c0,0-.1.2-.1.4,0,.4,0,.8,0,1.1,0,0,0,0,0,0,0,0,0,0,0,0-.4-.9-.6-2.6.7-2.9,1.1-.2,2.2-.3,3.3-.5,0,0,.1,0,.1,0,0,0,0,0,0,0v5.2s0,0,0,0c0,0,0,0,0,0-.3-.8-.2-1.8-.2-2.7,0,0,0-.2-.2-.2,0,0,0,0,0,0-.8.2-1.5.3-2.3.3-.6,0-.9-.4-.9-1,0,0,0-.2-.2-.2,0,0,0,0-.1,0Z"/>
  <path class="st0" d="M107.4,66.9c.5,1,.3,2.2.3,3.3,0,1.5-.8,2.3-2.3,2.5-1.1.2-2.2.3-3.2.5l1.3-1.7c1,.1,1.8,0,2.5-.6,0,0,.1,0,.1,0v.2c0,0,0,.1.1,0,.5-.8.4-2.4.3-3.3l.8-.9Z"/>
  <path class="st1" d="M106.6,67.8c0,1,.2,2.5-.3,3.3,0,0,0,0-.1,0v-.2c0-.1,0-.1-.2,0-.7.5-1.5.7-2.5.6,0,0,0-.1.2-.2.5-.1.9-.3,1.4-.7,0,0,0-.1,0-.2,0,0,0,0-.1,0h-.6c0,0,2.2-2.5,2.2-2.5Z"/>
  <path class="st0" d="M103.7,71.2l.7-.9h.6c0,0,.1,0,.1,0,0,0,0,0,0,.1-.5.3-1,.6-1.4.7Z"/>
  <path class="st14" d="M97.2,120.8l.4,1.2v.4c.2,0,.1,0,0,.1,0,0,0,0,0,0l-.6-.7-1-1.3c-1.4-2-2.3-3.7-3.2-5.9-.4-1.3-.8-2.7-1-4-.3-2.2-.3-4.3,0-6.5l1-4.2c3.4-10.5,12-19.3,20.6-25.9,0,0,0,0,0,0,0,0,0,0,0,0,.3,5.9-.1,11.8-1.4,17.6-.6,2.7-1.5,5.2-2.7,7.7,0,.1-.1.2-.3.2-8.4.6-13.9,5.1-13.4,14.1.1,2.5.6,4.9,1.4,7.3Z"/>
  <path class="st16" d="M116.9,86.6l1.7-2.4s0,0,0,0l-.9-2.6s0,0,0,0c0,0,0,0,0,0l2.9.9s0,0,0,0l2.2-1.6s0,0,0,0c0,0,0,0,0,0v3c.1,0,.1,0,.1,0l2.3,1.7s0,0,0,0c0,0,0,0,0,0l-2.8.9s0,0,0,0l-.8,2.6s0,0,0,0c0,0,0,0,0,0l-1.9-2.4s0,0,0,0h-2.8s0,0,0,0c0,0,0,0,0,0Z"/>
  <path class="st0" d="M92.9,88.5v11.4s-1,4.2-1,4.2v-12.8c0,0,1-2.8,1-2.8Z"/>
  <path class="st1" d="M91.8,91.3v12.8c-.2,2.2-.2,4.3,0,6.5,0,2,0,3.9,0,5.9,0,.4.1.8.3,1.2.7,2.5,2.3,3.9,4.9,4.1l.6.7s0,0,.1,0c0,0,0,0,0,0v-.4c7.1,0,12.8-2.8,15.9-9.4,1.2-2.5,2.7-4.9,4-7.3,0,0,0,0,0,0,0,0,0,0,0,0,1.1,4.7-.1,9.1-2.6,13.2,0,0,0,0,0,0,0,0,0,0,0,0,.5-1.5,1.2-3.2,1.4-4.8,0,0,0,0,0,0,0,0,0,0,0,0-1.4,2.4-2.9,4.7-4.6,6.9-3,3.8-7.5,6.4-11.9,8.3-.3.1-.3,0,0,0,.3-.2.6-.4,1.1-.7,0,0,.2-.1.2-.2,0,0,0,0,0,0,0,0,0,0,0,0-1.3.5-2.6.9-4,1.2-.4,0-1.1.1-1.6.3l-.3-.5c.9-.4,1.8-.9,2.6-1.6,0,0,0-.1,0-.2,0,0,0,0-.1,0-.9.4-2,.6-3.1.6-1.1-2.1-2.1-4.2-2.9-6.3-3.8-9.9-3.8-19.9,0-29.9Z"/>
  <path class="st14" d="M82.9,110.6c.3.7.6,1.3.7,1.6,3.1,7.6,1.4,15-2.4,21.9-1.3,2.3-2.8,4.5-4.4,6.6,0,0,0,0,0,0,0,0,0,0,0,0,1.1-2.5,2-5,2.8-7.6.7-2.3,1.2-4.7,1.4-7.1v-2.2c0-1.1-.2-2.2-.5-3.2l-.4-1c-2.2-3.7-6.7-3.4-10.3-2.3,0,0-.1,0-.1,0,0,0,0,0,0,0-.8-4-1.5-8.2-1.3-12.2,0-2.7.7-5.2,2-7.6,0,0,0,0,0,0,5.2,3.5,9.7,7.9,12.6,13.3ZM73.3,105.4s0,0,0,0l-3.1-.4s0,0,0,0c0,0,0,0,0,0l1.4,2.4s0,0,0,0l-1.3,2.6s0,0,0,0c0,0,0,0,0,0l2.8-.4s0,0,0,0l2.2,2.1s0,0,0,0c0,0,0,0,0,0l.4-2.7s0,0,0,0l2.7-1.4s0,0,0,0c0,0,0,0,0,0l-2.5-1.2s0,0,0,0l-.6-2.9s0,0,0,0c0,0,0,0,0,0l-1.9,1.9Z"/>
  <path class="st0" d="M80.1,119.4l.4,1c-7.3,4.7-15.6-3.3-19-9-1.1-2-2.3-3.9-3.4-5.9,0,0-.1-.1-.2,0,0,0,0,0,0,0,0,.9,0,1.9,0,2.8,0,.3-.1.6-.1.9,0,0,0,0,0,0,0,0,0,0,0,0h.2c0,0,.1,0,.1,0,.5,1,0,1.9.3,2.9,0,.3.1.3.2,0,0-.1,0-.3.1-.6,0,0,0-.1,0-.1,0,0,.2,0,.2.1.4,1,.9,2.2,1.3,3.1,1.6,3.1,3.7,5.8,6.4,8.1,3.6,3.1,8.5,3.8,13.1,4.2,0,0,0,0,0,0,0,0,0,0,0,0,0,0,0,0,0,0-1.2-.2-2.3-.5-3.5-.9,0,0-.1-.1,0-.2,0,0,0,0,.1,0,.6,0,1.3.1,1.9.1.9,0,1.7,0,2.6,0-.2,2.4-.7,4.8-1.4,7.1-2.2-1.1-4.5-2.2-6.7-3.2-5.7-2.5-11.1-6.6-14-12.1-.4-.8-.8-1.9-1.3-2.8,0,0,0,0,0,0l-1.1.9c0,0-.2,0-.3,0,0,0,0,0,0,0-3.1-4.3-2.5-10.2.2-14.5.4-.7,1.5-2.3,2.4-1.8.7.3,1.2,1.5,1.4,2.2.3.9.9,1.9,1.8,3.3,1.2,1.8,2.4,3.5,3.7,5.2,0,.1,0,.2,0,.3,0,0,0,0,0,0-.7.6-1.5,1-2.4,1.3,0,0,0,0,0,.1,0,0,0,0,0,0,3.3,4.9,10.4,11.7,16.9,7.6ZM57.8,102.2c0,.3.2.6.3.9,1.4,2.5,2.8,5.1,4.3,7.5,0,0,.1,0,.2,0l1.3-.6c0,0,.1-.1,0-.2,0,0,0,0,0,0-2-2.7-3.9-5.5-5.2-8.8,0-.1-.2-.3-.4-.5,0,0,0,0-.1,0-.6.5-1,1.8-1.1,2.5,0,0,0,0,0,0,0,0,0,0,0,0,0,0,0,0,0,0,.1-.3.2-.6.4-.9,0,0,0,0,.1,0,0,0,0,0,0,0Z"/>
  <path class="st0" d="M96.2,132.6l.6-1c0,0,0-.1,0-.2l-1.3-2.3c.5-.2,1.2-.2,1.6-.3,1.4-.3,2.7-.7,4-1.2,0,0,0,0,0,0,0,0,0,0,0,0,0,0,0,.2-.2.2-.4.3-.8.5-1.1.7-.2.2-.2.2,0,0,4.4-1.8,8.9-4.5,11.9-8.3,1.7-2.1,3.2-4.4,4.6-6.9,0,0,0,0,0,0,0,0,0,0,0,0-.2,1.5-.9,3.3-1.4,4.8,0,0,0,0,0,0,0,0,0,0,0,0,2.4-4.1,3.7-8.5,2.6-13.2,0,0,0,0,0,0,0,0,0,0,0,0-1.3,2.4-2.8,4.8-4,7.3-3.2,6.6-8.8,9.5-16.1,9.4l-.4-1.2c6.9.5,12.8-2.5,15.6-9,0,0,0,0,0-.1-.9-.3-1.8-.8-2.5-1.4,0,0,0-.2,0-.2,1.9-2.4,3.6-4.9,5-7.5.5-.9,1.5-4.5,3.1-2.8,3,3,4.1,8.6,3,12.5-.4,1.3-.9,2.4-1.7,3.5,0,0-.2,0-.2,0,0,0,0,0,0,0l-1.1-1s0,0,0,0c0,0,0,0,0,0-.5,1.2-.9,2.1-1.2,2.7-3.3,6.6-9,10.3-15.7,13-1.7.7-3.4,1.3-5.1,2ZM111.9,110.1c.4.3.9.5,1.4.6,0,0,.1,0,.1,0,1.8-2.9,2.8-5,4.2-7.5.2-.3.2-.6.2-.9,0,0,0-.1.1-.1,0,0,.1,0,.1,0l.5,1.1s0,0,0,0c0,0,0,0,0,0-.1-.9-.4-1.8-.9-2.6,0-.1-.3-.2-.4-.1,0,0,0,0-.1.1-1.4,3.3-3.2,6.2-5.4,9,0,0,0,.2,0,.3,0,0,0,0,0,0Z"/>
  <path class="st1" d="M57.6,102.2c-.2.3-.3.6-.4.9,0,0,0,0,0,0,0,0,0,0,0,0,0,0,0,0,0,0,0-.7.5-2,1.1-2.5,0,0,.1,0,.1,0,.2.2.3.4.4.5,1.3,3.3,3.2,6,5.2,8.8,0,0,0,.2,0,.2,0,0,0,0,0,0l-1.3.6c0,0-.2,0-.2,0-1.5-2.5-2.9-5-4.3-7.5-.2-.3-.2-.6-.3-.9,0,0,0,0,0,0,0,0,0,0,0,0Z"/>
  <path class="st1" d="M111.9,110.1c0,0-.1-.2,0-.3,0,0,0,0,0,0,2.1-2.8,4-5.7,5.4-9,0-.2.3-.2.4-.2,0,0,.1,0,.1.1.5.8.8,1.7.9,2.6,0,0,0,0,0,0,0,0,0,0,0,0l-.5-1.1c0,0-.1,0-.2,0,0,0,0,0,0,.1,0,.3,0,.6-.2.9-1.4,2.5-2.4,4.6-4.2,7.5,0,0,0,0-.1,0-.5-.1-1-.3-1.4-.6Z"/>
  <path class="st16" d="M73.3,105.4l1.9-1.9s0,0,0,0c0,0,0,0,0,0l.6,2.9s0,0,0,0l2.5,1.2s0,0,0,0c0,0,0,0,0,0l-2.7,1.4s0,0,0,0l-.4,2.7s0,0,0,0c0,0,0,0,0,0l-2.2-2.1s0,0,0,0l-2.8.4s0,0,0,0c0,0,0,0,0,0l1.3-2.6s0,0,0,0l-1.4-2.4s0,0,0,0c0,0,0,0,0,0l3.1.4s0,0,0,0Z"/>
  <path class="st0" d="M83.1,105.3c0,0,0,0,.1.2,4.1,9.5,6.3,21.3.9,30.8-.9-.8-1.9-1.6-2.9-2.3,3.7-6.9,5.5-14.2,2.4-21.9-.1-.3-.4-.9-.7-1.6l.2-5.2Z"/>
  <path class="st1" d="M80.5,120.4c.3,1,.5,2.1.5,3.2-.2,0-.5,0-.9,0-2.3.3-4.6.2-7-.3,0,0,0,0,0,0,0,0,0,0,0,0,.3.6,2.4,1.3,3.1,1.4,1.6.3,3.2.5,4.8.5v.5c-.9,0-1.8,0-2.6,0-.6,0-1.2-.1-1.9-.1,0,0-.1,0-.1.1,0,0,0,.1,0,.1,1.1.4,2.3.7,3.5.9,0,0,0,0,0,0,0,0,0,0,0,0,0,0,0,0,0,0-4.6-.4-9.5-1.1-13.1-4.2-2.7-2.3-4.8-5-6.4-8.1-.5-.9-.9-2.1-1.3-3.1,0,0-.1-.1-.2-.1,0,0,0,0,0,.1,0,.3,0,.5-.1.6,0,.3-.1.3-.2,0-.3-1,.2-1.9-.3-2.9,0,0,0,0-.1,0h-.2c0,0,0,0,0,0,0,0,0,0,0,0,0-.3.1-.6.1-.9,0-.9,0-1.9,0-2.8,0,0,0,0,0,0,0,0,.1,0,.2,0,1.1,2,2.2,3.9,3.4,5.9,3.4,5.7,11.7,13.7,19,9Z"/>
  <path class="st0" d="M91.9,110.5c.2,1.4.6,2.7,1,4,0,2.5.5,5,3.2,5.9l1,1.3c-2.6-.2-4.2-1.6-4.9-4.1-.1-.4-.2-.8-.3-1.2,0-2,0-3.9,0-5.9Z"/>
  <path class="st15" d="M92.9,114.6c.8,2.2,1.8,3.9,3.2,5.9-2.6-.9-3.2-3.4-3.2-5.9Z"/>
  <path class="st0" d="M81,123.7v1.7c-1.6,0-3.3-.1-4.9-.5-.7-.1-2.7-.8-3.1-1.4,0,0,0,0,0-.1,0,0,0,0,0,0,2.3.5,4.6.6,7,.3.3,0,.6,0,.9,0Z"/>
  <path class="st0" d="M95.3,128.6l-.6-1.2c1.1,0,2.1-.3,3.1-.6,0,0,.1,0,.2,0,0,0,0,.1,0,.1-.8.7-1.7,1.3-2.6,1.6Z"/>
  <path class="st0" d="M90.3,137.5c-.8,1.2-1.9,2.5-3.4,1.8l3.4-1.8Z"/>
  <path class="st13" d="M55.2,146l2.2-3.5c0,0,0,0,.1,0l1.3.2c0,0,.1,0,.1.1l-.3,6.5c0,0,0,.1-.1.1l-1.4-.2s0,0,0,0l.4-4.1c0-.1,0-.2,0,0l-1.8,3s0,0-.1,0h-1c0-.1,0-.2,0-.2l-.9-3.6c0,0,0,0,0,0l-.9,4.1c0,0,0,0,0,0l-1.4-.2c0,0-.1,0,0-.2l1.6-6.3c0,0,0-.1.2-.1l1.4.2s0,0,0,0l1.1,4c0,0,0,0,0,0Z"/>
  <path class="st13" d="M126.4,147.1l-2.5.4c0,0,0,0,0,0l-.3,1.3c0,0,0,.1-.1.1l-1.4.2c0,0,0,0,0,0,.5-2.3,1-4.6,1.6-6.9,0,0,0,0,.1,0l1.3-.2c0,0,.1,0,.2,0,1.3,1.9,2.6,3.9,3.8,6,0,0,0,.1,0,.1l-1.4.2c0,0-.1,0-.1,0l-.7-1.2c0,0,0,0-.1,0ZM124.5,143.8l-.4,2.2c0,0,0,0,0,0l1.5-.2c0,0,0,0,0-.1l-1.1-2c0,0,0,0,0,0Z"/>
  <path class="st13" d="M118,144.3l-1.9.2s0,0,0,0c0,0,0,0,0,0v-1.1c-.1,0-.1,0,0,0l5.6-.7s0,0,0,0l.2,1.1s0,0,0,0l-1.9.3s0,0,0,0h0s.7,5.3.7,5.3c0,0,0,0,0,0,0,0,0,0,0,0l-1.5.2s0,0,0,0c0,0,0,0,0,0l-.7-5.3s0,0,0,0Z"/>
  <path class="st13" d="M64.3,148.7l-2.6-.3c0,0-.1,0-.1,0l-.6,1.2s0,0-.1,0l-1.4-.2c0,0,0,0,0-.1,1.1-2.1,2.2-4.1,3.4-6.2,0,0,0,0,.1,0h1.3c0,.1.1.2.1.2.8,2.3,1.5,4.5,2,6.8,0,0,0,0,0,0l-1.5-.2c0,0-.1,0-.1-.1l-.4-1.3s0,0,0,0ZM62.4,147.1l1.5.2c0,0,0,0,0,0l-.6-2.2c0,0,0,0,0,0l-1,2c0,0,0,0,0,.1Z"/>
  <path class="st13" d="M112.1,149.1l-.3,1.3c0,0,0,0-.1.1h-1.5c0,.1,0,.1,0,0,.6-2.3,1.2-4.6,2-6.8,0,0,0,0,.1,0h1.3c0-.1.1,0,.2,0,1.2,2,2.4,4.1,3.5,6.2,0,0,0,.1,0,.1l-1.4.2c0,0-.1,0-.1,0l-.6-1.2c0,0,0,0-.1,0l-2.5.3c0,0-.1,0-.1.1ZM113,145.3l-.5,2.2c0,0,0,0,0,0l1.5-.2c0,0,0,0,0-.1l-1-2.1c0,0,0,0,0,0Z"/>
  <path class="st15" d="M124.1,146l.4-2.2c0,0,0,0,0,0l1.1,2c0,0,0,0,0,.1l-1.5.2c0,0,0,0,0,0Z"/>
  <path class="st13" d="M69.1,148.5l-.2,2s0,0,0,0h-1.5c0-.1,0-.1,0-.2l.6-6.4c0,0,0,0,.1-.1,1.7-.2,4.9,0,5,2.3,0,1-.4,1.7-1.4,2,0,0,0,0,0,.1.6.8,1,1.6,1.5,2.5,0,0,0,0,0,0,0,0,0,0,0,0h-1.7c0-.1,0-.1-.1-.2l-1.2-2.2c0,0,0,0-.2-.1h-.6c0,0,0,0,0,0ZM69.4,145.5v1.3c-.1.1,0,.2,0,.2h.6c.7.1,1.3-.2,1.4-.6h0s0,0,0,0c0-.4-.5-.9-1.2-.9,0,0,0,0,0,0h-.6c-.1,0-.2,0-.2.1Z"/>
  <path class="st13" d="M106.4,149.5l2.9-.2s0,0,0,0v1.3c.1,0,.1,0,0,0,0,0,0,0,0,0l-4.6.4s0,0,0,0l-.4-6.6s0,0,0,0c0,0,0,0,0,0h1.5c0,0,0,0,0,0l.4,5.2s0,0,0,0c0,0,0,0,0,0Z"/>
  <path class="st13" d="M76.5,151.2s0,0,0,0l.4-6.4c0,0,0,0,0,0,3-.3,6.4.1,5.8,4.1-.4,3-4,3-6.2,2.4ZM78.4,146l-.2,3.9c0,0,0,.1.1.1,0,0,0,0,0,0h.8c1.1.1,2-.7,2.1-1.8v-.3c0-1.1-.8-2-1.8-2h-.8c0,0-.1,0-.1,0,0,0,0,0,0,0Z"/>
  <path class="st13" d="M99.8,149.1v2.1c.1,0,0,.1,0,.1h-1.4c-.1,0-.2,0-.2-.1l-.2-6.3c0,0,0,0,0,0,1.1-.3,3.2-.5,4.2.2.9.6,1.1,2,.6,2.9-.5.9-2,1.2-3,1.1,0,0,0,0,0,0,0,0,0,0,0,0ZM99.6,146.1v1.6c0,0,.1.1.2.1,0,0,0,0,0,0h.6c.6,0,1.2-.4,1.1-.8v-.3c0-.4-.6-.7-1.2-.7h-.6c0,0-.1,0-.1.1h0Z"/>
  <path class="st13" d="M85.6,150.2h3.2s0,0,0,.1h0v1.1s0,0,0,0h-4.9c0,0,0,0,0-.1v-6.6c.1,0,.2,0,.2,0h4.5c0,0,0,0,0,.1h0s0,1.2,0,1.2c0,0,0,0,0,0h-2.9c0,0,0,0,0,0,0,0,0,0,0,0v1.1s0,0,0,0h2.6s0,0,0,0c0,0,0,0,0,0v1.2c0,0,0,0-.1,0h-2.5s0,0,0,0h0s0,1.5,0,1.5c0,0,0,0,0,0h0Z"/>
  <path class="st13" d="M91.8,150.1h2.9s0,0,0,0v1.3s0,0,0,0h-4.6c0,0,0,0,0,0v-6.6s0,0,0,0h1.5s0,0,0,0v5.2c0,0,0,0,.1,0Z"/>
  <path class="st15" d="M63.9,147.3l-1.5-.2c0,0,0,0,0-.1l1-2c0,0,0,0,0,0l.6,2.2c0,0,0,0,0,0Z"/>
  <path class="st15" d="M112.5,147.5l.5-2.2c0,0,0,0,0,0l1,2.1c0,0,0,0,0,.1l-1.5.2c0,0,0,0,0,0Z"/>
  <path class="st15" d="M69.4,145.5c0-.1,0-.2.2-.2h.6c.7.1,1.3.5,1.2,1,0,0,0,0,0,0h0c0,.5-.7.8-1.4.8,0,0,0,0,0,0h-.6c-.1,0-.2-.2-.2-.3v-1.3Z"/>
  <path class="st15" d="M78.4,146c0,0,0-.1.1-.1,0,0,0,0,0,0h.8c1.1.1,1.9,1,1.9,2.1v.3c0,1.1-1,1.9-2.1,1.8h-.8c0,0-.1-.1-.1-.2s0,0,0,0l.2-3.9Z"/>
  <path class="st15" d="M99.6,146.1c0,0,0-.1.1-.1h.6c.6,0,1.2.3,1.2.7v.3c0,.4-.5.8-1.1.8h-.6c0,0-.1,0-.1,0,0,0,0,0,0,0v-1.6Z"/>
</svg>